<mxfile host="app.diagrams.net" agent="Mozilla/5.0 (Windows NT 10.0; Win64; x64) AppleWebKit/537.36 (KHTML, like Gecko) Chrome/126.0.0.0 YaBrowser/24.7.0.0 Safari/537.36" version="24.7.16">
  <diagram id="UugSTBivYLk26Ze4gjHN" name="Страница — 1">
    <mxGraphModel dx="3268" dy="1166" grid="1" gridSize="10" guides="1" tooltips="1" connect="1" arrows="1" fold="1" page="0" pageScale="1" pageWidth="827" pageHeight="1169" background="none" math="0" shadow="0">
      <root>
        <mxCell id="0" />
        <mxCell id="1" parent="0" />
        <mxCell id="node19" value="ABullet : M" style="label;fontStyle=0;strokeColor=default;fillColor=none;align=left;verticalAlign=middle;overflow=hidden;spacingLeft=28;spacingRight=4;rotatable=0;points=[[0,0.5],[1,0.5]];portConstraint=eastwest;imageWidth=16;imageHeight=16;image=data:image/png,iVBORw0KGgoAAAANSUhEUgAAACAAAAAgCAYAAABzenr0AAACPklEQVR4Xu2WuUsDQRTG03hbe7USi9jZaGNjtNBokyjZFQUrG/GsbATvUtTOSm2DuyERBMH7qtIE2VWwEDz+Aa2s1vf2kNmXZNfsERD8YIqdnZnfN2/fvNlA4F+/VGZnvEwWuQlZ4Bay4mgdfe+rXhNDVQA/gabo7eU+GW+m43wRC7/bjymHW/2lM0Hhgz2tSrgjqKQ2S2AiH7yzrVltOSZSfD2d70pWcNZEelszIYn8El3DsX4DxxbtCik3e1EtCgI/Q9dxJEdwkbt63h2rpGsVLSkxVO4Enj0eraFrscJ1JYGflARu0TJXcJDX8MzhQDXkx5k+3vrUYCLhoPRmRAm3B+3gRbVb2JSRsA8i9wpRaaD8gCyMNMKAdxyU3OgzmXADx4jGurX6kd6KaP1JbpnyVT2I8RZqwi7sBsh4fjrqrYDnc+zDnSM8zyZm2TVMYk1gsbGCo6gBSeSmbODXtqeGNWEFR+UaMOcShcP3r2XnF9RjimuCo7MOZuasHOcYgASD5zfDhCN4MaIG1L6D4aBhwlc4Shb5D4RgxEz9cKrgyK3ZRdC1AHKKBgA0T9+h1FMBdwX8Sa3kPf9uBQtH9DB/oQkWgokLEbo0PgUWoYKV0I1wd8z3zmm3kIg/RciP/wcURkKv+58UHg2HzP8PcDHR+Z5Jq4Ra2A24Woy6Q8qdfiSxWNF5nklNOAs4tHM0Sed5JrxoEPRTCc3wC7yi6RxPRSshCy9Uzj1XnkpYOrghLRL8qpyMT/v6zf+8vgFG80iK7km8qAAAAABJRU5ErkJggg==" parent="1" vertex="1">
          <mxGeometry x="-80" y="1260" width="100" height="25" as="geometry" />
        </mxCell>
        <mxCell id="node24" value="EnemyBullet : M" style="label;fontStyle=0;strokeColor=default;fillColor=none;align=left;verticalAlign=middle;overflow=hidden;spacingLeft=28;spacingRight=4;rotatable=0;points=[[0,0.5],[1,0.5]];portConstraint=eastwest;imageWidth=16;imageHeight=16;image=data:image/png,iVBORw0KGgoAAAANSUhEUgAAACAAAAAgCAYAAABzenr0AAACPklEQVR4Xu2WuUsDQRTG03hbe7USi9jZaGNjtNBokyjZFQUrG/GsbATvUtTOSm2DuyERBMH7qtIE2VWwEDz+Aa2s1vf2kNmXZNfsERD8YIqdnZnfN2/fvNlA4F+/VGZnvEwWuQlZ4Bay4mgdfe+rXhNDVQA/gabo7eU+GW+m43wRC7/bjymHW/2lM0Hhgz2tSrgjqKQ2S2AiH7yzrVltOSZSfD2d70pWcNZEelszIYn8El3DsX4DxxbtCik3e1EtCgI/Q9dxJEdwkbt63h2rpGsVLSkxVO4Enj0eraFrscJ1JYGflARu0TJXcJDX8MzhQDXkx5k+3vrUYCLhoPRmRAm3B+3gRbVb2JSRsA8i9wpRaaD8gCyMNMKAdxyU3OgzmXADx4jGurX6kd6KaP1JbpnyVT2I8RZqwi7sBsh4fjrqrYDnc+zDnSM8zyZm2TVMYk1gsbGCo6gBSeSmbODXtqeGNWEFR+UaMOcShcP3r2XnF9RjimuCo7MOZuasHOcYgASD5zfDhCN4MaIG1L6D4aBhwlc4Shb5D4RgxEz9cKrgyK3ZRdC1AHKKBgA0T9+h1FMBdwX8Sa3kPf9uBQtH9DB/oQkWgokLEbo0PgUWoYKV0I1wd8z3zmm3kIg/RciP/wcURkKv+58UHg2HzP8PcDHR+Z5Jq4Ra2A24Woy6Q8qdfiSxWNF5nklNOAs4tHM0Sed5JrxoEPRTCc3wC7yi6RxPRSshCy9Uzj1XnkpYOrghLRL8qpyMT/v6zf+8vgFG80iK7km8qAAAAABJRU5ErkJggg==" parent="1" vertex="1">
          <mxGeometry x="-40" y="1395" width="130" height="25" as="geometry" />
        </mxCell>
        <mxCell id="node17" value="EnemyContainerMovement : M" style="label;fontStyle=0;strokeColor=default;fillColor=none;align=left;verticalAlign=middle;overflow=hidden;spacingLeft=28;spacingRight=4;rotatable=0;points=[[0,0.5],[1,0.5]];portConstraint=eastwest;imageWidth=16;imageHeight=16;image=data:image/png,iVBORw0KGgoAAAANSUhEUgAAACAAAAAgCAYAAABzenr0AAACPklEQVR4Xu2WuUsDQRTG03hbe7USi9jZaGNjtNBokyjZFQUrG/GsbATvUtTOSm2DuyERBMH7qtIE2VWwEDz+Aa2s1vf2kNmXZNfsERD8YIqdnZnfN2/fvNlA4F+/VGZnvEwWuQlZ4Bay4mgdfe+rXhNDVQA/gabo7eU+GW+m43wRC7/bjymHW/2lM0Hhgz2tSrgjqKQ2S2AiH7yzrVltOSZSfD2d70pWcNZEelszIYn8El3DsX4DxxbtCik3e1EtCgI/Q9dxJEdwkbt63h2rpGsVLSkxVO4Enj0eraFrscJ1JYGflARu0TJXcJDX8MzhQDXkx5k+3vrUYCLhoPRmRAm3B+3gRbVb2JSRsA8i9wpRaaD8gCyMNMKAdxyU3OgzmXADx4jGurX6kd6KaP1JbpnyVT2I8RZqwi7sBsh4fjrqrYDnc+zDnSM8zyZm2TVMYk1gsbGCo6gBSeSmbODXtqeGNWEFR+UaMOcShcP3r2XnF9RjimuCo7MOZuasHOcYgASD5zfDhCN4MaIG1L6D4aBhwlc4Shb5D4RgxEz9cKrgyK3ZRdC1AHKKBgA0T9+h1FMBdwX8Sa3kPf9uBQtH9DB/oQkWgokLEbo0PgUWoYKV0I1wd8z3zmm3kIg/RciP/wcURkKv+58UHg2HzP8PcDHR+Z5Jq4Ra2A24Woy6Q8qdfiSxWNF5nklNOAs4tHM0Sed5JrxoEPRTCc3wC7yi6RxPRSshCy9Uzj1XnkpYOrghLRL8qpyMT/v6zf+8vgFG80iK7km8qAAAAABJRU5ErkJggg==" parent="1" vertex="1">
          <mxGeometry x="542" y="1329" width="208" height="25" as="geometry" />
        </mxCell>
        <mxCell id="node16" value="GameInstaller" style="label;fontStyle=0;strokeColor=default;fillColor=none;align=left;verticalAlign=middle;overflow=hidden;spacingLeft=28;spacingRight=4;rotatable=0;points=[[0,0.5],[1,0.5]];portConstraint=eastwest;imageWidth=16;imageHeight=16;image=data:image/png,iVBORw0KGgoAAAANSUhEUgAAACAAAAAgCAYAAABzenr0AAACPklEQVR4Xu2WuUsDQRTG03hbe7USi9jZaGNjtNBokyjZFQUrG/GsbATvUtTOSm2DuyERBMH7qtIE2VWwEDz+Aa2s1vf2kNmXZNfsERD8YIqdnZnfN2/fvNlA4F+/VGZnvEwWuQlZ4Bay4mgdfe+rXhNDVQA/gabo7eU+GW+m43wRC7/bjymHW/2lM0Hhgz2tSrgjqKQ2S2AiH7yzrVltOSZSfD2d70pWcNZEelszIYn8El3DsX4DxxbtCik3e1EtCgI/Q9dxJEdwkbt63h2rpGsVLSkxVO4Enj0eraFrscJ1JYGflARu0TJXcJDX8MzhQDXkx5k+3vrUYCLhoPRmRAm3B+3gRbVb2JSRsA8i9wpRaaD8gCyMNMKAdxyU3OgzmXADx4jGurX6kd6KaP1JbpnyVT2I8RZqwi7sBsh4fjrqrYDnc+zDnSM8zyZm2TVMYk1gsbGCo6gBSeSmbODXtqeGNWEFR+UaMOcShcP3r2XnF9RjimuCo7MOZuasHOcYgASD5zfDhCN4MaIG1L6D4aBhwlc4Shb5D4RgxEz9cKrgyK3ZRdC1AHKKBgA0T9+h1FMBdwX8Sa3kPf9uBQtH9DB/oQkWgokLEbo0PgUWoYKV0I1wd8z3zmm3kIg/RciP/wcURkKv+58UHg2HzP8PcDHR+Z5Jq4Ra2A24Woy6Q8qdfiSxWNF5nklNOAs4tHM0Sed5JrxoEPRTCc3wC7yi6RxPRSshCy9Uzj1XnkpYOrghLRL8qpyMT/v6zf+8vgFG80iK7km8qAAAAABJRU5ErkJggg==" parent="1" vertex="1">
          <mxGeometry x="-280" y="2100" width="111" height="25" as="geometry" />
        </mxCell>
        <mxCell id="node0" value="PlayerInputHandler" style="label;fontStyle=0;strokeColor=default;fillColor=none;align=left;verticalAlign=middle;overflow=hidden;spacingLeft=28;spacingRight=4;rotatable=0;points=[[0,0.5],[1,0.5]];portConstraint=eastwest;imageWidth=16;imageHeight=16;image=data:image/png,iVBORw0KGgoAAAANSUhEUgAAACAAAAAgCAYAAABzenr0AAACPklEQVR4Xu2WuUsDQRTG03hbe7USi9jZaGNjtNBokyjZFQUrG/GsbATvUtTOSm2DuyERBMH7qtIE2VWwEDz+Aa2s1vf2kNmXZNfsERD8YIqdnZnfN2/fvNlA4F+/VGZnvEwWuQlZ4Bay4mgdfe+rXhNDVQA/gabo7eU+GW+m43wRC7/bjymHW/2lM0Hhgz2tSrgjqKQ2S2AiH7yzrVltOSZSfD2d70pWcNZEelszIYn8El3DsX4DxxbtCik3e1EtCgI/Q9dxJEdwkbt63h2rpGsVLSkxVO4Enj0eraFrscJ1JYGflARu0TJXcJDX8MzhQDXkx5k+3vrUYCLhoPRmRAm3B+3gRbVb2JSRsA8i9wpRaaD8gCyMNMKAdxyU3OgzmXADx4jGurX6kd6KaP1JbpnyVT2I8RZqwi7sBsh4fjrqrYDnc+zDnSM8zyZm2TVMYk1gsbGCo6gBSeSmbODXtqeGNWEFR+UaMOcShcP3r2XnF9RjimuCo7MOZuasHOcYgASD5zfDhCN4MaIG1L6D4aBhwlc4Shb5D4RgxEz9cKrgyK3ZRdC1AHKKBgA0T9+h1FMBdwX8Sa3kPf9uBQtH9DB/oQkWgokLEbo0PgUWoYKV0I1wd8z3zmm3kIg/RciP/wcURkKv+58UHg2HzP8PcDHR+Z5Jq4Ra2A24Woy6Q8qdfiSxWNF5nklNOAs4tHM0Sed5JrxoEPRTCc3wC7yi6RxPRSshCy9Uzj1XnkpYOrghLRL8qpyMT/v6zf+8vgFG80iK7km8qAAAAABJRU5ErkJggg==" parent="1" vertex="1">
          <mxGeometry x="228" y="1509" width="145" height="25" as="geometry" />
        </mxCell>
        <mxCell id="node2" value="WinLooseView : M" style="label;fontStyle=0;strokeColor=default;fillColor=none;align=left;verticalAlign=middle;overflow=hidden;spacingLeft=28;spacingRight=4;rotatable=0;points=[[0,0.5],[1,0.5]];portConstraint=eastwest;imageWidth=16;imageHeight=16;image=data:image/png,iVBORw0KGgoAAAANSUhEUgAAACAAAAAgCAYAAABzenr0AAACPklEQVR4Xu2WuUsDQRTG03hbe7USi9jZaGNjtNBokyjZFQUrG/GsbATvUtTOSm2DuyERBMH7qtIE2VWwEDz+Aa2s1vf2kNmXZNfsERD8YIqdnZnfN2/fvNlA4F+/VGZnvEwWuQlZ4Bay4mgdfe+rXhNDVQA/gabo7eU+GW+m43wRC7/bjymHW/2lM0Hhgz2tSrgjqKQ2S2AiH7yzrVltOSZSfD2d70pWcNZEelszIYn8El3DsX4DxxbtCik3e1EtCgI/Q9dxJEdwkbt63h2rpGsVLSkxVO4Enj0eraFrscJ1JYGflARu0TJXcJDX8MzhQDXkx5k+3vrUYCLhoPRmRAm3B+3gRbVb2JSRsA8i9wpRaaD8gCyMNMKAdxyU3OgzmXADx4jGurX6kd6KaP1JbpnyVT2I8RZqwi7sBsh4fjrqrYDnc+zDnSM8zyZm2TVMYk1gsbGCo6gBSeSmbODXtqeGNWEFR+UaMOcShcP3r2XnF9RjimuCo7MOZuasHOcYgASD5zfDhCN4MaIG1L6D4aBhwlc4Shb5D4RgxEz9cKrgyK3ZRdC1AHKKBgA0T9+h1FMBdwX8Sa3kPf9uBQtH9DB/oQkWgokLEbo0PgUWoYKV0I1wd8z3zmm3kIg/RciP/wcURkKv+58UHg2HzP8PcDHR+Z5Jq4Ra2A24Woy6Q8qdfiSxWNF5nklNOAs4tHM0Sed5JrxoEPRTCc3wC7yi6RxPRSshCy9Uzj1XnkpYOrghLRL8qpyMT/v6zf+8vgFG80iK7km8qAAAAABJRU5ErkJggg==" parent="1" vertex="1">
          <mxGeometry x="1230" y="1545" width="140" height="25" as="geometry" />
        </mxCell>
        <mxCell id="edge8" value="" style="html=1;rounded=1;edgeStyle=orthogonalEdgeStyle;dashed=0;startArrow=none;endArrow=block;endSize=12;strokeColor=#3574f0;exitX=0.500;exitY=0.001;exitDx=0;exitDy=0;entryX=0.250;entryY=1.001;entryDx=0;entryDy=0;" parent="1" source="node19" target="node20" edge="1">
          <mxGeometry width="50" height="50" relative="1" as="geometry">
            <Array as="points">
              <mxPoint x="-30" y="1260" />
              <mxPoint x="-30" y="660" />
              <mxPoint x="274" y="660" />
            </Array>
          </mxGeometry>
        </mxCell>
        <mxCell id="edge5" value="" style="html=1;rounded=1;edgeStyle=orthogonalEdgeStyle;dashed=1;startArrow=none;endArrow=block;endSize=12;endFill=0;strokeColor=#24a394;" parent="1" source="node21" target="node4" edge="1">
          <mxGeometry width="50" height="50" relative="1" as="geometry">
            <Array as="points">
              <mxPoint x="370" y="802" />
              <mxPoint x="250" y="802" />
            </Array>
          </mxGeometry>
        </mxCell>
        <mxCell id="edge11" value="" style="html=1;rounded=1;edgeStyle=orthogonalEdgeStyle;dashed=0;startArrow=none;endArrow=block;endSize=12;strokeColor=#3574f0;exitX=0;exitY=0.5;exitDx=0;exitDy=0;" parent="1" source="4bJk6xh4GVJk0JVJR18--20" target="node20" edge="1">
          <mxGeometry width="50" height="50" relative="1" as="geometry">
            <Array as="points">
              <mxPoint x="327" y="776" />
            </Array>
          </mxGeometry>
        </mxCell>
        <mxCell id="edge41" value="" style="html=1;rounded=1;edgeStyle=orthogonalEdgeStyle;dashed=0;startArrow=none;endArrow=block;endSize=12;strokeColor=#3574f0;" parent="1" edge="1">
          <mxGeometry width="50" height="50" relative="1" as="geometry">
            <Array as="points">
              <mxPoint x="540" y="680" />
              <mxPoint x="540" y="680" />
            </Array>
            <mxPoint x="540" y="764" as="sourcePoint" />
            <mxPoint x="540" y="600" as="targetPoint" />
          </mxGeometry>
        </mxCell>
        <mxCell id="edge42" value="" style="html=1;rounded=1;edgeStyle=orthogonalEdgeStyle;dashed=0;startArrow=none;endArrow=block;endSize=12;strokeColor=#3574f0;" parent="1" source="4bJk6xh4GVJk0JVJR18--20" target="node13" edge="1">
          <mxGeometry width="50" height="50" relative="1" as="geometry">
            <Array as="points">
              <mxPoint x="940" y="770" />
            </Array>
          </mxGeometry>
        </mxCell>
        <mxCell id="edge3" value="" style="html=1;rounded=1;edgeStyle=orthogonalEdgeStyle;dashed=1;startArrow=none;endArrow=block;endSize=12;endFill=0;strokeColor=#24a394;" parent="1" source="node24" target="node19" edge="1">
          <mxGeometry width="50" height="50" relative="1" as="geometry">
            <Array as="points">
              <mxPoint x="-6" y="1310" />
              <mxPoint x="-6" y="1310" />
            </Array>
          </mxGeometry>
        </mxCell>
        <mxCell id="edge22" value="" style="html=1;rounded=1;edgeStyle=orthogonalEdgeStyle;dashed=0;startArrow=none;endArrow=block;endSize=12;strokeColor=#3574f0;" parent="1" source="node24" target="4bJk6xh4GVJk0JVJR18--18" edge="1">
          <mxGeometry width="50" height="50" relative="1" as="geometry">
            <Array as="points">
              <mxPoint x="100" y="1408" />
              <mxPoint x="100" y="890" />
              <mxPoint x="170" y="890" />
            </Array>
          </mxGeometry>
        </mxCell>
        <mxCell id="edge49" value="" style="html=1;rounded=1;edgeStyle=orthogonalEdgeStyle;dashed=0;startArrow=none;endArrow=block;endSize=12;strokeColor=#3574f0;" parent="1" source="node17" target="node3" edge="1">
          <mxGeometry width="50" height="50" relative="1" as="geometry">
            <Array as="points">
              <mxPoint x="580" y="1160" />
              <mxPoint x="453" y="1160" />
            </Array>
          </mxGeometry>
        </mxCell>
        <mxCell id="edge40" value="" style="html=1;rounded=1;edgeStyle=orthogonalEdgeStyle;dashed=0;startArrow=none;endArrow=block;endSize=12;strokeColor=#3574f0;" parent="1" source="node17" target="node22" edge="1">
          <mxGeometry width="50" height="50" relative="1" as="geometry">
            <Array as="points">
              <mxPoint x="680" y="720" />
              <mxPoint x="600" y="720" />
            </Array>
          </mxGeometry>
        </mxCell>
        <mxCell id="edge6" value="" style="html=1;rounded=1;edgeStyle=orthogonalEdgeStyle;dashed=1;startArrow=none;endArrow=block;endSize=12;endFill=0;strokeColor=#24a394;exitX=0.125;exitY=0.002;exitDx=0;exitDy=0;" parent="1" source="node1" target="node25" edge="1">
          <mxGeometry width="50" height="50" relative="1" as="geometry">
            <Array as="points">
              <mxPoint x="112" y="1860" />
              <mxPoint x="112" y="1860" />
            </Array>
          </mxGeometry>
        </mxCell>
        <mxCell id="edge25" value="" style="html=1;rounded=1;edgeStyle=orthogonalEdgeStyle;dashed=0;startArrow=none;endArrow=block;endSize=12;strokeColor=#3574f0;" parent="1" source="node1" target="node21" edge="1">
          <mxGeometry width="50" height="50" relative="1" as="geometry">
            <Array as="points">
              <mxPoint x="145" y="920" />
              <mxPoint x="533" y="920" />
            </Array>
          </mxGeometry>
        </mxCell>
        <mxCell id="edge23" value="" style="html=1;rounded=1;edgeStyle=orthogonalEdgeStyle;dashed=0;startArrow=none;endArrow=block;endSize=12;strokeColor=#3574f0;" parent="1" source="node1" target="node3" edge="1">
          <mxGeometry width="50" height="50" relative="1" as="geometry">
            <Array as="points">
              <mxPoint x="175" y="1700" />
              <mxPoint x="700" y="1700" />
              <mxPoint x="700" y="1380" />
              <mxPoint x="760" y="1380" />
              <mxPoint x="760" y="1140" />
              <mxPoint x="480" y="1140" />
            </Array>
          </mxGeometry>
        </mxCell>
        <mxCell id="edge24" value="" style="html=1;rounded=1;edgeStyle=orthogonalEdgeStyle;dashed=0;startArrow=none;endArrow=block;endSize=12;strokeColor=#3574f0;" parent="1" source="node1" target="node23" edge="1">
          <mxGeometry width="50" height="50" relative="1" as="geometry">
            <Array as="points">
              <mxPoint x="204" y="1720" />
              <mxPoint x="940" y="1720" />
            </Array>
          </mxGeometry>
        </mxCell>
        <mxCell id="edge14" value="" style="html=1;rounded=1;edgeStyle=orthogonalEdgeStyle;dashed=0;startArrow=none;endArrow=block;endSize=12;strokeColor=#3574f0;" parent="1" source="4bJk6xh4GVJk0JVJR18--52" target="node21" edge="1">
          <mxGeometry width="50" height="50" relative="1" as="geometry">
            <Array as="points">
              <mxPoint x="980" y="1020" />
              <mxPoint x="640" y="1020" />
              <mxPoint x="640" y="920" />
              <mxPoint x="587" y="920" />
            </Array>
          </mxGeometry>
        </mxCell>
        <mxCell id="edge47" value="" style="html=1;rounded=1;edgeStyle=orthogonalEdgeStyle;dashed=0;startArrow=none;endArrow=block;endSize=12;strokeColor=#3574f0;" parent="1" source="4bJk6xh4GVJk0JVJR18--52" target="node3" edge="1">
          <mxGeometry width="50" height="50" relative="1" as="geometry">
            <Array as="points">
              <mxPoint x="918" y="1060" />
            </Array>
          </mxGeometry>
        </mxCell>
        <mxCell id="edge48" value="" style="html=1;rounded=1;edgeStyle=orthogonalEdgeStyle;dashed=0;startArrow=none;endArrow=diamondThinendSize=12;strokeColor=#f2c55c;" parent="1" source="4bJk6xh4GVJk0JVJR18--52" target="node3" edge="1">
          <mxGeometry width="50" height="50" relative="1" as="geometry">
            <Array as="points">
              <mxPoint x="949" y="1030" />
            </Array>
          </mxGeometry>
        </mxCell>
        <mxCell id="edge44" value="" style="html=1;rounded=1;edgeStyle=orthogonalEdgeStyle;dashed=0;startArrow=none;endArrow=diamondThinendSize=12;strokeColor=#f2c55c;" parent="1" source="4bJk6xh4GVJk0JVJR18--52" target="node22" edge="1">
          <mxGeometry width="50" height="50" relative="1" as="geometry">
            <Array as="points">
              <mxPoint x="740" y="1317" />
              <mxPoint x="740" y="587" />
            </Array>
          </mxGeometry>
        </mxCell>
        <mxCell id="edge43" value="" style="html=1;rounded=1;edgeStyle=orthogonalEdgeStyle;dashed=0;startArrow=none;endArrow=diamondThinendSize=12;strokeColor=#f2c55c;" parent="1" source="4bJk6xh4GVJk0JVJR18--52" target="node13" edge="1">
          <mxGeometry width="50" height="50" relative="1" as="geometry">
            <Array as="points">
              <mxPoint x="1000" y="940" />
              <mxPoint x="972" y="940" />
            </Array>
          </mxGeometry>
        </mxCell>
        <mxCell id="edge45" value="" style="html=1;rounded=1;edgeStyle=orthogonalEdgeStyle;dashed=0;startArrow=none;endArrow=block;endSize=12;strokeColor=#3574f0;" parent="1" source="4bJk6xh4GVJk0JVJR18--28" target="node21" edge="1">
          <mxGeometry width="50" height="50" relative="1" as="geometry">
            <Array as="points">
              <mxPoint x="479" y="940" />
              <mxPoint x="480" y="940" />
            </Array>
          </mxGeometry>
        </mxCell>
        <mxCell id="edge46" value="" style="html=1;rounded=1;edgeStyle=orthogonalEdgeStyle;dashed=0;startArrow=none;endArrow=block;endSize=12;strokeColor=#955ae0;" parent="1" source="4bJk6xh4GVJk0JVJR18--28" target="node21" edge="1">
          <mxGeometry width="50" height="50" relative="1" as="geometry">
            <Array as="points">
              <mxPoint x="561" y="940" />
              <mxPoint x="560" y="940" />
            </Array>
          </mxGeometry>
        </mxCell>
        <mxCell id="edge16" value="" style="html=1;rounded=1;edgeStyle=orthogonalEdgeStyle;dashed=0;startArrow=none;endArrow=block;endSize=12;strokeColor=#3574f0;" parent="1" source="4bJk6xh4GVJk0JVJR18--55" target="node21" edge="1">
          <mxGeometry width="50" height="50" relative="1" as="geometry">
            <Array as="points">
              <mxPoint x="956" y="1460" />
              <mxPoint x="880" y="1460" />
              <mxPoint x="880" y="1080" />
              <mxPoint x="620" y="1080" />
              <mxPoint x="620" y="940" />
              <mxPoint x="574" y="940" />
            </Array>
          </mxGeometry>
        </mxCell>
        <mxCell id="edge13" value="" style="html=1;rounded=1;edgeStyle=orthogonalEdgeStyle;dashed=0;startArrow=none;endArrow=block;endSize=12;strokeColor=#3574f0;entryX=0.500;entryY=1.002;entryDx=0;entryDy=0;" parent="1" source="4bJk6xh4GVJk0JVJR18--55" target="node26" edge="1">
          <mxGeometry width="50" height="50" relative="1" as="geometry">
            <Array as="points">
              <mxPoint x="980" y="1490" />
              <mxPoint x="980" y="1490" />
            </Array>
          </mxGeometry>
        </mxCell>
        <mxCell id="edge50" value="" style="html=1;rounded=1;edgeStyle=orthogonalEdgeStyle;dashed=0;startArrow=none;endArrow=block;endSize=12;strokeColor=#3574f0;" parent="1" source="4bJk6xh4GVJk0JVJR18--55" target="node3" edge="1">
          <mxGeometry width="50" height="50" relative="1" as="geometry">
            <Array as="points">
              <mxPoint x="931" y="1480" />
              <mxPoint x="840" y="1480" />
              <mxPoint x="840" y="1100" />
              <mxPoint x="534" y="1100" />
            </Array>
          </mxGeometry>
        </mxCell>
        <mxCell id="edge38" value="" style="html=1;rounded=1;edgeStyle=orthogonalEdgeStyle;dashed=0;startArrow=none;endArrow=block;endSize=12;strokeColor=#3574f0;" parent="1" source="4bJk6xh4GVJk0JVJR18--55" target="node22" edge="1">
          <mxGeometry width="50" height="50" relative="1" as="geometry">
            <Array as="points">
              <mxPoint x="1005" y="1460" />
              <mxPoint x="1080" y="1460" />
              <mxPoint x="1080" y="960" />
              <mxPoint x="700" y="960" />
              <mxPoint x="700" y="680" />
              <mxPoint x="620" y="680" />
            </Array>
          </mxGeometry>
        </mxCell>
        <mxCell id="edge39" value="" style="html=1;rounded=1;edgeStyle=orthogonalEdgeStyle;dashed=0;startArrow=none;endArrow=block;endSize=12;strokeColor=#3574f0;" parent="1" source="4bJk6xh4GVJk0JVJR18--55" target="node13" edge="1">
          <mxGeometry width="50" height="50" relative="1" as="geometry">
            <Array as="points">
              <mxPoint x="1030" y="1480" />
              <mxPoint x="1120" y="1480" />
              <mxPoint x="1120" y="900" />
              <mxPoint x="1000" y="900" />
            </Array>
          </mxGeometry>
        </mxCell>
        <mxCell id="edge37" value="" style="html=1;rounded=1;edgeStyle=orthogonalEdgeStyle;dashed=0;startArrow=none;endArrow=block;endSize=12;strokeColor=#A50040;fillColor=#d80073;" parent="1" target="node3" edge="1">
          <mxGeometry width="50" height="50" relative="1" as="geometry">
            <Array as="points">
              <mxPoint x="806" y="2113" />
              <mxPoint x="806" y="1120" />
              <mxPoint x="507" y="1120" />
            </Array>
            <mxPoint x="-130" y="2113" as="sourcePoint" />
          </mxGeometry>
        </mxCell>
        <mxCell id="edge35" value="" style="html=1;rounded=1;edgeStyle=orthogonalEdgeStyle;dashed=0;startArrow=none;endArrow=block;endSize=12;strokeColor=#A50040;fillColor=#d80073;" parent="1" target="node23" edge="1">
          <mxGeometry width="50" height="50" relative="1" as="geometry">
            <Array as="points">
              <mxPoint x="817" y="2113" />
              <mxPoint x="817" y="1557" />
            </Array>
            <mxPoint x="-130" y="2113" as="sourcePoint" />
          </mxGeometry>
        </mxCell>
        <mxCell id="edge18" value="" style="html=1;rounded=1;edgeStyle=orthogonalEdgeStyle;dashed=0;startArrow=none;endArrow=block;endSize=12;strokeColor=#A50040;exitX=1;exitY=0.5;exitDx=0;exitDy=0;fillColor=#d80073;" parent="1" source="node16" target="node10" edge="1">
          <mxGeometry width="50" height="50" relative="1" as="geometry">
            <Array as="points">
              <mxPoint x="772" y="2113" />
              <mxPoint x="772" y="1440" />
              <mxPoint x="336" y="1440" />
            </Array>
          </mxGeometry>
        </mxCell>
        <mxCell id="edge34" value="" style="html=1;rounded=1;edgeStyle=orthogonalEdgeStyle;dashed=0;startArrow=none;endArrow=block;endSize=12;strokeColor=#A50040;entryX=0.813;entryY=1.002;entryDx=0;entryDy=0;fillColor=#d80073;" parent="1" target="node22" edge="1">
          <mxGeometry width="50" height="50" relative="1" as="geometry">
            <Array as="points">
              <mxPoint x="830" y="2113" />
              <mxPoint x="830" y="660" />
              <mxPoint x="640" y="660" />
            </Array>
            <mxPoint x="-130" y="2113" as="sourcePoint" />
          </mxGeometry>
        </mxCell>
        <mxCell id="edge33" value="" style="html=1;rounded=1;edgeStyle=orthogonalEdgeStyle;dashed=0;startArrow=none;endArrow=block;endSize=12;strokeColor=#A50040;exitX=1;exitY=0.5;exitDx=0;exitDy=0;fillColor=#d80073;" parent="1" source="node16" target="node0" edge="1">
          <mxGeometry width="50" height="50" relative="1" as="geometry">
            <Array as="points">
              <mxPoint x="761" y="2113" />
              <mxPoint x="761" y="1530" />
            </Array>
          </mxGeometry>
        </mxCell>
        <mxCell id="edge31" value="" style="html=1;rounded=1;edgeStyle=orthogonalEdgeStyle;dashed=0;startArrow=none;endArrow=block;endSize=12;strokeColor=#3574f0;" parent="1" target="node14" edge="1" source="4bJk6xh4GVJk0JVJR18--40">
          <mxGeometry width="50" height="50" relative="1" as="geometry">
            <Array as="points">
              <mxPoint x="87" y="1560" />
              <mxPoint x="512" y="1560" />
            </Array>
            <mxPoint x="-130" y="2113" as="sourcePoint" />
          </mxGeometry>
        </mxCell>
        <mxCell id="edge15" value="" style="html=1;rounded=1;edgeStyle=orthogonalEdgeStyle;dashed=0;startArrow=none;endArrow=block;endSize=12;strokeColor=#A50040;exitX=1;exitY=0.5;exitDx=0;exitDy=0;fillColor=#d80073;" parent="1" source="node16" target="4bJk6xh4GVJk0JVJR18--3" edge="1">
          <mxGeometry width="50" height="50" relative="1" as="geometry">
            <Array as="points">
              <mxPoint x="850" y="2113" />
              <mxPoint x="850" y="794" />
            </Array>
          </mxGeometry>
        </mxCell>
        <mxCell id="edge32" value="" style="html=1;rounded=1;edgeStyle=orthogonalEdgeStyle;dashed=0;startArrow=none;endArrow=block;endSize=12;strokeColor=#A50040;exitX=1;exitY=0.5;exitDx=0;exitDy=0;fillColor=#d80073;" parent="1" source="node16" target="node13" edge="1">
          <mxGeometry width="50" height="50" relative="1" as="geometry">
            <Array as="points">
              <mxPoint x="839" y="2113" />
              <mxPoint x="839" y="610" />
              <mxPoint x="1014" y="610" />
            </Array>
          </mxGeometry>
        </mxCell>
        <mxCell id="edge30" value="" style="html=1;rounded=1;edgeStyle=orthogonalEdgeStyle;dashed=0;startArrow=none;endArrow=block;endSize=12;strokeColor=#A50040;exitX=1;exitY=0.5;exitDx=0;exitDy=0;fillColor=#d80073;" parent="1" source="node16" target="node8" edge="1">
          <mxGeometry width="50" height="50" relative="1" as="geometry">
            <Array as="points">
              <mxPoint x="794" y="2112" />
              <mxPoint x="794" y="1250" />
            </Array>
          </mxGeometry>
        </mxCell>
        <mxCell id="edge2" value="" style="html=1;rounded=1;edgeStyle=orthogonalEdgeStyle;dashed=1;startArrow=none;endArrow=block;endSize=12;endFill=0;strokeColor=#24a394;" parent="1" source="4bJk6xh4GVJk0JVJR18--32" target="node19" edge="1">
          <mxGeometry width="50" height="50" relative="1" as="geometry">
            <Array as="points">
              <mxPoint x="-56" y="1320" />
              <mxPoint x="-55" y="1320" />
            </Array>
          </mxGeometry>
        </mxCell>
        <mxCell id="edge21" value="" style="html=1;rounded=1;edgeStyle=orthogonalEdgeStyle;dashed=0;startArrow=none;endArrow=block;endSize=12;strokeColor=#3574f0;entryX=0;entryY=0.5;entryDx=0;entryDy=0;" parent="1" source="4bJk6xh4GVJk0JVJR18--32" target="node4" edge="1">
          <mxGeometry width="50" height="50" relative="1" as="geometry">
            <Array as="points">
              <mxPoint x="-106" y="802" />
            </Array>
          </mxGeometry>
        </mxCell>
        <mxCell id="edge0" value="" style="html=1;rounded=1;edgeStyle=orthogonalEdgeStyle;dashed=1;startArrow=none;endArrow=block;endSize=12;endFill=0;strokeColor=#24a394;" parent="1" source="node22" target="node4" edge="1">
          <mxGeometry width="50" height="50" relative="1" as="geometry">
            <Array as="points">
              <mxPoint x="581" y="730" />
              <mxPoint x="170" y="730" />
            </Array>
            <mxPoint x="571.5" y="589" as="sourcePoint" />
            <mxPoint x="121" y="801" as="targetPoint" />
          </mxGeometry>
        </mxCell>
        <mxCell id="edge54" value="" style="html=1;rounded=1;edgeStyle=orthogonalEdgeStyle;dashed=0;startArrow=none;endArrow=block;endSize=12;strokeColor=#3574f0;" parent="1" source="node18" target="node22" edge="1">
          <mxGeometry width="50" height="50" relative="1" as="geometry">
            <Array as="points">
              <mxPoint x="500" y="630" />
            </Array>
            <mxPoint x="254" y="800" as="sourcePoint" />
          </mxGeometry>
        </mxCell>
        <mxCell id="edge26" value="" style="html=1;rounded=1;edgeStyle=orthogonalEdgeStyle;dashed=0;startArrow=none;endArrow=block;endSize=12;strokeColor=#3574f0;entryX=1;entryY=0.5;entryDx=0;entryDy=0;" parent="1" source="4bJk6xh4GVJk0JVJR18--14" target="4bJk6xh4GVJk0JVJR18--10" edge="1">
          <mxGeometry width="50" height="50" relative="1" as="geometry">
            <Array as="points">
              <mxPoint x="190" y="433" />
            </Array>
            <mxPoint x="140" y="710" as="sourcePoint" />
          </mxGeometry>
        </mxCell>
        <mxCell id="edge27" value="" style="html=1;rounded=1;edgeStyle=orthogonalEdgeStyle;dashed=0;startArrow=none;endArrow=diamondThinendSize=12;strokeColor=#f2c55c;exitX=0.300;exitY=0.001;exitDx=0;exitDy=0;" parent="1" source="node0" target="node10" edge="1">
          <mxGeometry width="50" height="50" relative="1" as="geometry">
            <Array as="points">
              <mxPoint x="271" y="1340" />
              <mxPoint x="271" y="1340" />
            </Array>
          </mxGeometry>
        </mxCell>
        <mxCell id="edge28" value="" style="html=1;rounded=1;edgeStyle=orthogonalEdgeStyle;dashed=0;startArrow=none;endArrow=block;endSize=12;strokeColor=#3574f0;exitX=0.500;exitY=0.001;exitDx=0;exitDy=0;" parent="1" source="node0" target="node10" edge="1">
          <mxGeometry width="50" height="50" relative="1" as="geometry">
            <Array as="points">
              <mxPoint x="301" y="1412" />
              <mxPoint x="300" y="1412" />
            </Array>
          </mxGeometry>
        </mxCell>
        <mxCell id="edge7" value="" style="html=1;rounded=1;edgeStyle=orthogonalEdgeStyle;dashed=0;startArrow=none;endArrow=diamondThinendSize=12;strokeColor=#f2c55c;exitX=0.900;exitY=0.001;exitDx=0;exitDy=0;" parent="1" source="node0" target="4bJk6xh4GVJk0JVJR18--38" edge="1">
          <mxGeometry width="50" height="50" relative="1" as="geometry">
            <Array as="points">
              <mxPoint x="359" y="1480" />
            </Array>
          </mxGeometry>
        </mxCell>
        <mxCell id="edge9" value="" style="html=1;rounded=1;edgeStyle=orthogonalEdgeStyle;dashed=0;startArrow=none;endArrow=block;endSize=12;strokeColor=#3574f0;entryX=0;entryY=0.5;entryDx=0;entryDy=0;" parent="1" source="node0" target="4bJk6xh4GVJk0JVJR18--38" edge="1">
          <mxGeometry width="50" height="50" relative="1" as="geometry">
            <Array as="points">
              <mxPoint x="310" y="1473" />
              <mxPoint x="390" y="1473" />
            </Array>
          </mxGeometry>
        </mxCell>
        <mxCell id="edge12" value="" style="html=1;rounded=1;edgeStyle=orthogonalEdgeStyle;dashed=0;startArrow=none;endArrow=block;endSize=12;strokeColor=#3574f0;" parent="1" source="4bJk6xh4GVJk0JVJR18--38" target="node22" edge="1">
          <mxGeometry width="50" height="50" relative="1" as="geometry">
            <Array as="points">
              <mxPoint x="420" y="1240" />
              <mxPoint x="310" y="1240" />
              <mxPoint x="310" y="700" />
              <mxPoint x="520" y="700" />
            </Array>
          </mxGeometry>
        </mxCell>
        <mxCell id="edge53" value="" style="html=1;rounded=1;edgeStyle=orthogonalEdgeStyle;dashed=0;startArrow=none;endArrow=block;endSize=12;strokeColor=#3574f0;" parent="1" source="4bJk6xh4GVJk0JVJR18--38" target="node8" edge="1">
          <mxGeometry width="50" height="50" relative="1" as="geometry">
            <Array as="points">
              <mxPoint x="440" y="1410" />
              <mxPoint x="440" y="1410" />
            </Array>
          </mxGeometry>
        </mxCell>
        <mxCell id="edge4" value="" style="html=1;rounded=1;edgeStyle=orthogonalEdgeStyle;dashed=1;startArrow=none;endArrow=block;endSize=12;endFill=0;strokeColor=#24a394;" parent="1" source="node6" target="node11" edge="1">
          <mxGeometry width="50" height="50" relative="1" as="geometry">
            <Array as="points" />
          </mxGeometry>
        </mxCell>
        <mxCell id="edge51" value="" style="html=1;rounded=1;edgeStyle=orthogonalEdgeStyle;dashed=0;startArrow=none;endArrow=diamondThinendSize=12;strokeColor=#f2c55c;exitX=0;exitY=0.5;exitDx=0;exitDy=0;" parent="1" source="node6" target="node13" edge="1">
          <mxGeometry width="50" height="50" relative="1" as="geometry">
            <Array as="points">
              <mxPoint x="1030" y="761" />
            </Array>
            <mxPoint x="1030" y="560" as="targetPoint" />
          </mxGeometry>
        </mxCell>
        <mxCell id="edge52" value="" style="html=1;rounded=1;edgeStyle=orthogonalEdgeStyle;dashed=0;startArrow=none;endArrow=block;endSize=12;strokeColor=#3574f0;" parent="1" source="node6" target="node13" edge="1">
          <mxGeometry width="50" height="50" relative="1" as="geometry">
            <Array as="points">
              <mxPoint x="1120" y="720" />
              <mxPoint x="1043" y="720" />
            </Array>
          </mxGeometry>
        </mxCell>
        <mxCell id="edge55" value="" style="html=1;rounded=1;edgeStyle=orthogonalEdgeStyle;dashed=0;startArrow=none;endArrow=block;endSize=12;strokeColor=#3574f0;entryX=0;entryY=0.5;entryDx=0;entryDy=0;exitX=1;exitY=0.5;exitDx=0;exitDy=0;" parent="1" source="node12" target="4bJk6xh4GVJk0JVJR18--6" edge="1">
          <mxGeometry width="50" height="50" relative="1" as="geometry">
            <Array as="points">
              <mxPoint x="900" y="493" />
              <mxPoint x="900" y="493" />
            </Array>
          </mxGeometry>
        </mxCell>
        <mxCell id="edge1" value="" style="html=1;rounded=1;edgeStyle=orthogonalEdgeStyle;dashed=1;startArrow=none;endArrow=block;endSize=12;endFill=0;strokeColor=#24a394;" parent="1" source="node9" target="node25" edge="1">
          <mxGeometry width="50" height="50" relative="1" as="geometry">
            <Array as="points">
              <mxPoint x="10" y="1818" />
            </Array>
          </mxGeometry>
        </mxCell>
        <mxCell id="edge10" value="" style="html=1;rounded=1;edgeStyle=orthogonalEdgeStyle;dashed=0;startArrow=none;endArrow=block;endSize=12;strokeColor=#3574f0;exitX=0;exitY=0.5;exitDx=0;exitDy=0;" parent="1" source="node9" target="node7" edge="1">
          <mxGeometry width="50" height="50" relative="1" as="geometry">
            <Array as="points">
              <mxPoint x="-83" y="1922" />
            </Array>
            <mxPoint y="1910" as="sourcePoint" />
            <mxPoint x="-83.00000000000011" y="1470" as="targetPoint" />
          </mxGeometry>
        </mxCell>
        <mxCell id="edge19" value="" style="html=1;rounded=1;edgeStyle=orthogonalEdgeStyle;dashed=0;startArrow=none;endArrow=block;endSize=12;strokeColor=#3574f0;entryX=0.250;entryY=1.002;entryDx=0;entryDy=0;" parent="1" source="node9" target="node0" edge="1">
          <mxGeometry width="50" height="50" relative="1" as="geometry">
            <Array as="points">
              <mxPoint x="78" y="1880" />
              <mxPoint x="264" y="1880" />
            </Array>
          </mxGeometry>
        </mxCell>
        <mxCell id="edge29" value="" style="html=1;rounded=1;edgeStyle=orthogonalEdgeStyle;dashed=0;startArrow=none;endArrow=block;endSize=12;strokeColor=#3574f0;" parent="1" source="node2" target="node22" edge="1">
          <mxGeometry width="50" height="50" relative="1" as="geometry">
            <Array as="points">
              <mxPoint x="1400" y="1558" />
              <mxPoint x="1400" y="588" />
            </Array>
          </mxGeometry>
        </mxCell>
        <mxCell id="9ZlDgFem-ozexyMsRsAW-7" style="edgeStyle=orthogonalEdgeStyle;rounded=1;orthogonalLoop=1;jettySize=auto;html=1;dashed=0;strokeColor=#3574f0;align=center;verticalAlign=middle;fontFamily=Helvetica;fontSize=11;fontColor=default;labelBackgroundColor=default;startArrow=none;endArrow=block;endSize=12;" parent="1" source="node2" target="node23" edge="1">
          <mxGeometry relative="1" as="geometry">
            <Array as="points">
              <mxPoint x="1030" y="1563" />
            </Array>
          </mxGeometry>
        </mxCell>
        <mxCell id="4bJk6xh4GVJk0JVJR18--2" value="" style="group" vertex="1" connectable="0" parent="1">
          <mxGeometry x="1260" y="748" width="102" height="81" as="geometry" />
        </mxCell>
        <mxCell id="node11" value="ISaveLoader" style="label;fontStyle=0;strokeColor=default;fillColor=none;align=left;verticalAlign=middle;overflow=hidden;spacingLeft=28;spacingRight=4;rotatable=0;points=[[0,0.5],[1,0.5]];portConstraint=eastwest;imageWidth=16;imageHeight=16;image=data:image/png,iVBORw0KGgoAAAANSUhEUgAAACAAAAAgCAYAAABzenr0AAABAklEQVR4XmNgGAWjYBSMAiqAyJ5PIiGd35tCun6cD+n+/hmMQWygGEgOXT1VQXDXt+CQru8fgfg/DvwRpAZdH1UA1PJ/IIvcCo78N/So+K9uFgrGIDZIDOqIf1R3RGjbZ1GYz62j5/5XNfLFikFysJAA6UE3BwOENvxnC+763g6Mv2cgDGKDxNDVQeIc6PP8wxiWomOQGrAjgHrQzcEAId0/OjDiESiGoQ6UyIByoKBGtxAdg9RAzPpxHt0cDABU+BSk2MCtGIwxHIOG1c3CMCxExyA1UPWf0O3DAAPvgIGOggFPhMQCmmVDUsCAFkQwMKBFMQwMaGU0CkbBKBgFQx4AAMHA5vI38L6PAAAAAElFTkSuQmCC" parent="4bJk6xh4GVJk0JVJR18--2" vertex="1">
          <mxGeometry width="102" height="33.19672131147541" as="geometry" />
        </mxCell>
        <mxCell id="4bJk6xh4GVJk0JVJR18--1" value="Save()&#xa;TryLoad()" style="label;fontStyle=0;strokeColor=default;fillColor=none;align=left;verticalAlign=middle;overflow=hidden;spacingLeft=28;spacingRight=4;rotatable=0;points=[[0,0.5],[1,0.5]];portConstraint=eastwest;imageWidth=16;imageHeight=16;image=data:image/png,iVBORw0KGgoAAAANSUhEUgAAACAAAAAgCAYAAABzenr0AAABAklEQVR4XmNgGAWjYBSMAiqAyJ5PIiGd35tCun6cD+n+/hmMQWygGEgOXT1VQXDXt+CQru8fgfg/DvwRpAZdH1UA1PJ/IIvcCo78N/So+K9uFgrGIDZIDOqIf1R3RGjbZ1GYz62j5/5XNfLFikFysJAA6UE3BwOENvxnC+763g6Mv2cgDGKDxNDVQeIc6PP8wxiWomOQGrAjgHrQzcEAId0/OjDiESiGoQ6UyIByoKBGtxAdg9RAzPpxHt0cDABU+BSk2MCtGIwxHIOG1c3CMCxExyA1UPWf0O3DAAPvgIGOggFPhMQCmmVDUsCAFkQwMKBFMQwMaGU0CkbBKBgFQx4AAMHA5vI38L6PAAAAAElFTkSuQmCC" vertex="1" parent="4bJk6xh4GVJk0JVJR18--2">
          <mxGeometry y="33.19672131147541" width="102" height="47.803278688524586" as="geometry" />
        </mxCell>
        <mxCell id="4bJk6xh4GVJk0JVJR18--4" value="" style="group" vertex="1" connectable="0" parent="1">
          <mxGeometry x="1050" y="748" width="170" height="66" as="geometry" />
        </mxCell>
        <mxCell id="node6" value="PlayerPrefsSaveLoader" style="label;fontStyle=0;strokeColor=default;fillColor=none;align=left;verticalAlign=middle;overflow=hidden;spacingLeft=28;spacingRight=4;rotatable=0;points=[[0,0.5],[1,0.5]];portConstraint=eastwest;imageWidth=16;imageHeight=16;image=data:image/png,iVBORw0KGgoAAAANSUhEUgAAACAAAAAgCAYAAABzenr0AAACPklEQVR4Xu2WuUsDQRTG03hbe7USi9jZaGNjtNBokyjZFQUrG/GsbATvUtTOSm2DuyERBMH7qtIE2VWwEDz+Aa2s1vf2kNmXZNfsERD8YIqdnZnfN2/fvNlA4F+/VGZnvEwWuQlZ4Bay4mgdfe+rXhNDVQA/gabo7eU+GW+m43wRC7/bjymHW/2lM0Hhgz2tSrgjqKQ2S2AiH7yzrVltOSZSfD2d70pWcNZEelszIYn8El3DsX4DxxbtCik3e1EtCgI/Q9dxJEdwkbt63h2rpGsVLSkxVO4Enj0eraFrscJ1JYGflARu0TJXcJDX8MzhQDXkx5k+3vrUYCLhoPRmRAm3B+3gRbVb2JSRsA8i9wpRaaD8gCyMNMKAdxyU3OgzmXADx4jGurX6kd6KaP1JbpnyVT2I8RZqwi7sBsh4fjrqrYDnc+zDnSM8zyZm2TVMYk1gsbGCo6gBSeSmbODXtqeGNWEFR+UaMOcShcP3r2XnF9RjimuCo7MOZuasHOcYgASD5zfDhCN4MaIG1L6D4aBhwlc4Shb5D4RgxEz9cKrgyK3ZRdC1AHKKBgA0T9+h1FMBdwX8Sa3kPf9uBQtH9DB/oQkWgokLEbo0PgUWoYKV0I1wd8z3zmm3kIg/RciP/wcURkKv+58UHg2HzP8PcDHR+Z5Jq4Ra2A24Woy6Q8qdfiSxWNF5nklNOAs4tHM0Sed5JrxoEPRTCc3wC7yi6RxPRSshCy9Uzj1XnkpYOrghLRL8qpyMT/v6zf+8vgFG80iK7km8qAAAAABJRU5ErkJggg==" parent="4bJk6xh4GVJk0JVJR18--4" vertex="1">
          <mxGeometry width="170" height="25" as="geometry" />
        </mxCell>
        <mxCell id="4bJk6xh4GVJk0JVJR18--3" value="Save()&#xa;TryLoad()" style="label;fontStyle=0;strokeColor=default;fillColor=none;align=left;verticalAlign=middle;overflow=hidden;spacingLeft=28;spacingRight=4;rotatable=0;points=[[0,0.5],[1,0.5]];portConstraint=eastwest;imageWidth=16;imageHeight=16;image=data:image/png,iVBORw0KGgoAAAANSUhEUgAAACAAAAAgCAYAAABzenr0AAACPklEQVR4Xu2WuUsDQRTG03hbe7USi9jZaGNjtNBokyjZFQUrG/GsbATvUtTOSm2DuyERBMH7qtIE2VWwEDz+Aa2s1vf2kNmXZNfsERD8YIqdnZnfN2/fvNlA4F+/VGZnvEwWuQlZ4Bay4mgdfe+rXhNDVQA/gabo7eU+GW+m43wRC7/bjymHW/2lM0Hhgz2tSrgjqKQ2S2AiH7yzrVltOSZSfD2d70pWcNZEelszIYn8El3DsX4DxxbtCik3e1EtCgI/Q9dxJEdwkbt63h2rpGsVLSkxVO4Enj0eraFrscJ1JYGflARu0TJXcJDX8MzhQDXkx5k+3vrUYCLhoPRmRAm3B+3gRbVb2JSRsA8i9wpRaaD8gCyMNMKAdxyU3OgzmXADx4jGurX6kd6KaP1JbpnyVT2I8RZqwi7sBsh4fjrqrYDnc+zDnSM8zyZm2TVMYk1gsbGCo6gBSeSmbODXtqeGNWEFR+UaMOcShcP3r2XnF9RjimuCo7MOZuasHOcYgASD5zfDhCN4MaIG1L6D4aBhwlc4Shb5D4RgxEz9cKrgyK3ZRdC1AHKKBgA0T9+h1FMBdwX8Sa3kPf9uBQtH9DB/oQkWgokLEbo0PgUWoYKV0I1wd8z3zmm3kIg/RciP/wcURkKv+58UHg2HzP8PcDHR+Z5Jq4Ra2A24Woy6Q8qdfiSxWNF5nklNOAs4tHM0Sed5JrxoEPRTCc3wC7yi6RxPRSshCy9Uzj1XnkpYOrghLRL8qpyMT/v6zf+8vgFG80iK7km8qAAAAABJRU5ErkJggg==" vertex="1" parent="4bJk6xh4GVJk0JVJR18--4">
          <mxGeometry y="25" width="170" height="41" as="geometry" />
        </mxCell>
        <mxCell id="4bJk6xh4GVJk0JVJR18--7" value="" style="group" vertex="1" connectable="0" parent="1">
          <mxGeometry x="930" y="480" width="170" height="60" as="geometry" />
        </mxCell>
        <mxCell id="node13" value="AddScore(uint score)&#xa;LoadData(int highScore)" style="label;fontStyle=0;strokeColor=default;fillColor=none;align=left;verticalAlign=middle;overflow=hidden;spacingLeft=28;spacingRight=4;rotatable=0;points=[[0,0.5],[1,0.5]];portConstraint=eastwest;imageWidth=16;imageHeight=16;image=data:image/png,iVBORw0KGgoAAAANSUhEUgAAACAAAAAgCAYAAABzenr0AAACPklEQVR4Xu2WuUsDQRTG03hbe7USi9jZaGNjtNBokyjZFQUrG/GsbATvUtTOSm2DuyERBMH7qtIE2VWwEDz+Aa2s1vf2kNmXZNfsERD8YIqdnZnfN2/fvNlA4F+/VGZnvEwWuQlZ4Bay4mgdfe+rXhNDVQA/gabo7eU+GW+m43wRC7/bjymHW/2lM0Hhgz2tSrgjqKQ2S2AiH7yzrVltOSZSfD2d70pWcNZEelszIYn8El3DsX4DxxbtCik3e1EtCgI/Q9dxJEdwkbt63h2rpGsVLSkxVO4Enj0eraFrscJ1JYGflARu0TJXcJDX8MzhQDXkx5k+3vrUYCLhoPRmRAm3B+3gRbVb2JSRsA8i9wpRaaD8gCyMNMKAdxyU3OgzmXADx4jGurX6kd6KaP1JbpnyVT2I8RZqwi7sBsh4fjrqrYDnc+zDnSM8zyZm2TVMYk1gsbGCo6gBSeSmbODXtqeGNWEFR+UaMOcShcP3r2XnF9RjimuCo7MOZuasHOcYgASD5zfDhCN4MaIG1L6D4aBhwlc4Shb5D4RgxEz9cKrgyK3ZRdC1AHKKBgA0T9+h1FMBdwX8Sa3kPf9uBQtH9DB/oQkWgokLEbo0PgUWoYKV0I1wd8z3zmm3kIg/RciP/wcURkKv+58UHg2HzP8PcDHR+Z5Jq4Ra2A24Woy6Q8qdfiSxWNF5nklNOAs4tHM0Sed5JrxoEPRTCc3wC7yi6RxPRSshCy9Uzj1XnkpYOrghLRL8qpyMT/v6zf+8vgFG80iK7km8qAAAAABJRU5ErkJggg==" parent="4bJk6xh4GVJk0JVJR18--7" vertex="1">
          <mxGeometry y="25" width="170" height="35" as="geometry" />
        </mxCell>
        <mxCell id="4bJk6xh4GVJk0JVJR18--6" value="PlayerScore" style="label;fontStyle=0;strokeColor=default;fillColor=none;align=left;verticalAlign=middle;overflow=hidden;spacingLeft=28;spacingRight=4;rotatable=0;points=[[0,0.5],[1,0.5]];portConstraint=eastwest;imageWidth=16;imageHeight=16;image=data:image/png,iVBORw0KGgoAAAANSUhEUgAAACAAAAAgCAYAAABzenr0AAACPklEQVR4Xu2WuUsDQRTG03hbe7USi9jZaGNjtNBokyjZFQUrG/GsbATvUtTOSm2DuyERBMH7qtIE2VWwEDz+Aa2s1vf2kNmXZNfsERD8YIqdnZnfN2/fvNlA4F+/VGZnvEwWuQlZ4Bay4mgdfe+rXhNDVQA/gabo7eU+GW+m43wRC7/bjymHW/2lM0Hhgz2tSrgjqKQ2S2AiH7yzrVltOSZSfD2d70pWcNZEelszIYn8El3DsX4DxxbtCik3e1EtCgI/Q9dxJEdwkbt63h2rpGsVLSkxVO4Enj0eraFrscJ1JYGflARu0TJXcJDX8MzhQDXkx5k+3vrUYCLhoPRmRAm3B+3gRbVb2JSRsA8i9wpRaaD8gCyMNMKAdxyU3OgzmXADx4jGurX6kd6KaP1JbpnyVT2I8RZqwi7sBsh4fjrqrYDnc+zDnSM8zyZm2TVMYk1gsbGCo6gBSeSmbODXtqeGNWEFR+UaMOcShcP3r2XnF9RjimuCo7MOZuasHOcYgASD5zfDhCN4MaIG1L6D4aBhwlc4Shb5D4RgxEz9cKrgyK3ZRdC1AHKKBgA0T9+h1FMBdwX8Sa3kPf9uBQtH9DB/oQkWgokLEbo0PgUWoYKV0I1wd8z3zmm3kIg/RciP/wcURkKv+58UHg2HzP8PcDHR+Z5Jq4Ra2A24Woy6Q8qdfiSxWNF5nklNOAs4tHM0Sed5JrxoEPRTCc3wC7yi6RxPRSshCy9Uzj1XnkpYOrghLRL8qpyMT/v6zf+8vgFG80iK7km8qAAAAABJRU5ErkJggg==" vertex="1" parent="4bJk6xh4GVJk0JVJR18--7">
          <mxGeometry width="170" height="25" as="geometry" />
        </mxCell>
        <mxCell id="4bJk6xh4GVJk0JVJR18--9" value="" style="group" vertex="1" connectable="0" parent="1">
          <mxGeometry x="740" y="480" width="151" height="50" as="geometry" />
        </mxCell>
        <mxCell id="node12" value="PlayerScoreView : M" style="label;fontStyle=0;strokeColor=default;fillColor=none;align=left;verticalAlign=middle;overflow=hidden;spacingLeft=28;spacingRight=4;rotatable=0;points=[[0,0.5],[1,0.5]];portConstraint=eastwest;imageWidth=16;imageHeight=16;image=data:image/png,iVBORw0KGgoAAAANSUhEUgAAACAAAAAgCAYAAABzenr0AAACPklEQVR4Xu2WuUsDQRTG03hbe7USi9jZaGNjtNBokyjZFQUrG/GsbATvUtTOSm2DuyERBMH7qtIE2VWwEDz+Aa2s1vf2kNmXZNfsERD8YIqdnZnfN2/fvNlA4F+/VGZnvEwWuQlZ4Bay4mgdfe+rXhNDVQA/gabo7eU+GW+m43wRC7/bjymHW/2lM0Hhgz2tSrgjqKQ2S2AiH7yzrVltOSZSfD2d70pWcNZEelszIYn8El3DsX4DxxbtCik3e1EtCgI/Q9dxJEdwkbt63h2rpGsVLSkxVO4Enj0eraFrscJ1JYGflARu0TJXcJDX8MzhQDXkx5k+3vrUYCLhoPRmRAm3B+3gRbVb2JSRsA8i9wpRaaD8gCyMNMKAdxyU3OgzmXADx4jGurX6kd6KaP1JbpnyVT2I8RZqwi7sBsh4fjrqrYDnc+zDnSM8zyZm2TVMYk1gsbGCo6gBSeSmbODXtqeGNWEFR+UaMOcShcP3r2XnF9RjimuCo7MOZuasHOcYgASD5zfDhCN4MaIG1L6D4aBhwlc4Shb5D4RgxEz9cKrgyK3ZRdC1AHKKBgA0T9+h1FMBdwX8Sa3kPf9uBQtH9DB/oQkWgokLEbo0PgUWoYKV0I1wd8z3zmm3kIg/RciP/wcURkKv+58UHg2HzP8PcDHR+Z5Jq4Ra2A24Woy6Q8qdfiSxWNF5nklNOAs4tHM0Sed5JrxoEPRTCc3wC7yi6RxPRSshCy9Uzj1XnkpYOrghLRL8qpyMT/v6zf+8vgFG80iK7km8qAAAAABJRU5ErkJggg==" parent="4bJk6xh4GVJk0JVJR18--9" vertex="1">
          <mxGeometry width="151" height="25" as="geometry" />
        </mxCell>
        <mxCell id="4bJk6xh4GVJk0JVJR18--8" value="RefreshVisual()" style="label;fontStyle=0;strokeColor=default;fillColor=none;align=left;verticalAlign=middle;overflow=hidden;spacingLeft=28;spacingRight=4;rotatable=0;points=[[0,0.5],[1,0.5]];portConstraint=eastwest;imageWidth=16;imageHeight=16;image=data:image/png,iVBORw0KGgoAAAANSUhEUgAAACAAAAAgCAYAAABzenr0AAACPklEQVR4Xu2WuUsDQRTG03hbe7USi9jZaGNjtNBokyjZFQUrG/GsbATvUtTOSm2DuyERBMH7qtIE2VWwEDz+Aa2s1vf2kNmXZNfsERD8YIqdnZnfN2/fvNlA4F+/VGZnvEwWuQlZ4Bay4mgdfe+rXhNDVQA/gabo7eU+GW+m43wRC7/bjymHW/2lM0Hhgz2tSrgjqKQ2S2AiH7yzrVltOSZSfD2d70pWcNZEelszIYn8El3DsX4DxxbtCik3e1EtCgI/Q9dxJEdwkbt63h2rpGsVLSkxVO4Enj0eraFrscJ1JYGflARu0TJXcJDX8MzhQDXkx5k+3vrUYCLhoPRmRAm3B+3gRbVb2JSRsA8i9wpRaaD8gCyMNMKAdxyU3OgzmXADx4jGurX6kd6KaP1JbpnyVT2I8RZqwi7sBsh4fjrqrYDnc+zDnSM8zyZm2TVMYk1gsbGCo6gBSeSmbODXtqeGNWEFR+UaMOcShcP3r2XnF9RjimuCo7MOZuasHOcYgASD5zfDhCN4MaIG1L6D4aBhwlc4Shb5D4RgxEz9cKrgyK3ZRdC1AHKKBgA0T9+h1FMBdwX8Sa3kPf9uBQtH9DB/oQkWgokLEbo0PgUWoYKV0I1wd8z3zmm3kIg/RciP/wcURkKv+58UHg2HzP8PcDHR+Z5Jq4Ra2A24Woy6Q8qdfiSxWNF5nklNOAs4tHM0Sed5JrxoEPRTCc3wC7yi6RxPRSshCy9Uzj1XnkpYOrghLRL8qpyMT/v6zf+8vgFG80iK7km8qAAAAABJRU5ErkJggg==" vertex="1" parent="4bJk6xh4GVJk0JVJR18--9">
          <mxGeometry y="25" width="151" height="25" as="geometry" />
        </mxCell>
        <mxCell id="4bJk6xh4GVJk0JVJR18--11" value="" style="group" vertex="1" connectable="0" parent="1">
          <mxGeometry x="-10" y="420" width="170" height="60" as="geometry" />
        </mxCell>
        <mxCell id="node5" value="Flash(float duration)&#xa;RefreshText()" style="label;fontStyle=0;strokeColor=default;fillColor=none;align=left;verticalAlign=middle;overflow=hidden;spacingLeft=28;spacingRight=4;rotatable=0;points=[[0,0.5],[1,0.5]];portConstraint=eastwest;imageWidth=16;imageHeight=16;image=data:image/png,iVBORw0KGgoAAAANSUhEUgAAACAAAAAgCAYAAABzenr0AAACPklEQVR4Xu2WuUsDQRTG03hbe7USi9jZaGNjtNBokyjZFQUrG/GsbATvUtTOSm2DuyERBMH7qtIE2VWwEDz+Aa2s1vf2kNmXZNfsERD8YIqdnZnfN2/fvNlA4F+/VGZnvEwWuQlZ4Bay4mgdfe+rXhNDVQA/gabo7eU+GW+m43wRC7/bjymHW/2lM0Hhgz2tSrgjqKQ2S2AiH7yzrVltOSZSfD2d70pWcNZEelszIYn8El3DsX4DxxbtCik3e1EtCgI/Q9dxJEdwkbt63h2rpGsVLSkxVO4Enj0eraFrscJ1JYGflARu0TJXcJDX8MzhQDXkx5k+3vrUYCLhoPRmRAm3B+3gRbVb2JSRsA8i9wpRaaD8gCyMNMKAdxyU3OgzmXADx4jGurX6kd6KaP1JbpnyVT2I8RZqwi7sBsh4fjrqrYDnc+zDnSM8zyZm2TVMYk1gsbGCo6gBSeSmbODXtqeGNWEFR+UaMOcShcP3r2XnF9RjimuCo7MOZuasHOcYgASD5zfDhCN4MaIG1L6D4aBhwlc4Shb5D4RgxEz9cKrgyK3ZRdC1AHKKBgA0T9+h1FMBdwX8Sa3kPf9uBQtH9DB/oQkWgokLEbo0PgUWoYKV0I1wd8z3zmm3kIg/RciP/wcURkKv+58UHg2HzP8PcDHR+Z5Jq4Ra2A24Woy6Q8qdfiSxWNF5nklNOAs4tHM0Sed5JrxoEPRTCc3wC7yi6RxPRSshCy9Uzj1XnkpYOrghLRL8qpyMT/v6zf+8vgFG80iK7km8qAAAAABJRU5ErkJggg==" parent="4bJk6xh4GVJk0JVJR18--11" vertex="1">
          <mxGeometry y="25" width="170" height="35" as="geometry" />
        </mxCell>
        <mxCell id="4bJk6xh4GVJk0JVJR18--10" value="TMPFlashingModule : M" style="label;fontStyle=0;strokeColor=default;fillColor=none;align=left;verticalAlign=middle;overflow=hidden;spacingLeft=28;spacingRight=4;rotatable=0;points=[[0,0.5],[1,0.5]];portConstraint=eastwest;imageWidth=16;imageHeight=16;image=data:image/png,iVBORw0KGgoAAAANSUhEUgAAACAAAAAgCAYAAABzenr0AAACPklEQVR4Xu2WuUsDQRTG03hbe7USi9jZaGNjtNBokyjZFQUrG/GsbATvUtTOSm2DuyERBMH7qtIE2VWwEDz+Aa2s1vf2kNmXZNfsERD8YIqdnZnfN2/fvNlA4F+/VGZnvEwWuQlZ4Bay4mgdfe+rXhNDVQA/gabo7eU+GW+m43wRC7/bjymHW/2lM0Hhgz2tSrgjqKQ2S2AiH7yzrVltOSZSfD2d70pWcNZEelszIYn8El3DsX4DxxbtCik3e1EtCgI/Q9dxJEdwkbt63h2rpGsVLSkxVO4Enj0eraFrscJ1JYGflARu0TJXcJDX8MzhQDXkx5k+3vrUYCLhoPRmRAm3B+3gRbVb2JSRsA8i9wpRaaD8gCyMNMKAdxyU3OgzmXADx4jGurX6kd6KaP1JbpnyVT2I8RZqwi7sBsh4fjrqrYDnc+zDnSM8zyZm2TVMYk1gsbGCo6gBSeSmbODXtqeGNWEFR+UaMOcShcP3r2XnF9RjimuCo7MOZuasHOcYgASD5zfDhCN4MaIG1L6D4aBhwlc4Shb5D4RgxEz9cKrgyK3ZRdC1AHKKBgA0T9+h1FMBdwX8Sa3kPf9uBQtH9DB/oQkWgokLEbo0PgUWoYKV0I1wd8z3zmm3kIg/RciP/wcURkKv+58UHg2HzP8PcDHR+Z5Jq4Ra2A24Woy6Q8qdfiSxWNF5nklNOAs4tHM0Sed5JrxoEPRTCc3wC7yi6RxPRSshCy9Uzj1XnkpYOrghLRL8qpyMT/v6zf+8vgFG80iK7km8qAAAAABJRU5ErkJggg==" vertex="1" parent="4bJk6xh4GVJk0JVJR18--11">
          <mxGeometry width="170" height="25" as="geometry" />
        </mxCell>
        <mxCell id="4bJk6xh4GVJk0JVJR18--13" value="" style="group" vertex="1" connectable="0" parent="1">
          <mxGeometry x="210" y="420" width="163" height="50" as="geometry" />
        </mxCell>
        <mxCell id="node20" value="CheckLayersEquality()" style="label;fontStyle=0;strokeColor=default;fillColor=none;align=left;verticalAlign=middle;overflow=hidden;spacingLeft=28;spacingRight=4;rotatable=0;points=[[0,0.5],[1,0.5]];portConstraint=eastwest;imageWidth=16;imageHeight=16;image=data:image/png,iVBORw0KGgoAAAANSUhEUgAAACAAAAAgCAYAAABzenr0AAACPklEQVR4Xu2WuUsDQRTG03hbe7USi9jZaGNjtNBokyjZFQUrG/GsbATvUtTOSm2DuyERBMH7qtIE2VWwEDz+Aa2s1vf2kNmXZNfsERD8YIqdnZnfN2/fvNlA4F+/VGZnvEwWuQlZ4Bay4mgdfe+rXhNDVQA/gabo7eU+GW+m43wRC7/bjymHW/2lM0Hhgz2tSrgjqKQ2S2AiH7yzrVltOSZSfD2d70pWcNZEelszIYn8El3DsX4DxxbtCik3e1EtCgI/Q9dxJEdwkbt63h2rpGsVLSkxVO4Enj0eraFrscJ1JYGflARu0TJXcJDX8MzhQDXkx5k+3vrUYCLhoPRmRAm3B+3gRbVb2JSRsA8i9wpRaaD8gCyMNMKAdxyU3OgzmXADx4jGurX6kd6KaP1JbpnyVT2I8RZqwi7sBsh4fjrqrYDnc+zDnSM8zyZm2TVMYk1gsbGCo6gBSeSmbODXtqeGNWEFR+UaMOcShcP3r2XnF9RjimuCo7MOZuasHOcYgASD5zfDhCN4MaIG1L6D4aBhwlc4Shb5D4RgxEz9cKrgyK3ZRdC1AHKKBgA0T9+h1FMBdwX8Sa3kPf9uBQtH9DB/oQkWgokLEbo0PgUWoYKV0I1wd8z3zmm3kIg/RciP/wcURkKv+58UHg2HzP8PcDHR+Z5Jq4Ra2A24Woy6Q8qdfiSxWNF5nklNOAs4tHM0Sed5JrxoEPRTCc3wC7yi6RxPRSshCy9Uzj1XnkpYOrghLRL8qpyMT/v6zf+8vgFG80iK7km8qAAAAABJRU5ErkJggg==" parent="4bJk6xh4GVJk0JVJR18--13" vertex="1">
          <mxGeometry y="25" width="163" height="25" as="geometry" />
        </mxCell>
        <mxCell id="4bJk6xh4GVJk0JVJR18--12" value="LayerService" style="label;fontStyle=0;strokeColor=default;fillColor=none;align=left;verticalAlign=middle;overflow=hidden;spacingLeft=28;spacingRight=4;rotatable=0;points=[[0,0.5],[1,0.5]];portConstraint=eastwest;imageWidth=16;imageHeight=16;image=data:image/png,iVBORw0KGgoAAAANSUhEUgAAACAAAAAgCAYAAABzenr0AAACPklEQVR4Xu2WuUsDQRTG03hbe7USi9jZaGNjtNBokyjZFQUrG/GsbATvUtTOSm2DuyERBMH7qtIE2VWwEDz+Aa2s1vf2kNmXZNfsERD8YIqdnZnfN2/fvNlA4F+/VGZnvEwWuQlZ4Bay4mgdfe+rXhNDVQA/gabo7eU+GW+m43wRC7/bjymHW/2lM0Hhgz2tSrgjqKQ2S2AiH7yzrVltOSZSfD2d70pWcNZEelszIYn8El3DsX4DxxbtCik3e1EtCgI/Q9dxJEdwkbt63h2rpGsVLSkxVO4Enj0eraFrscJ1JYGflARu0TJXcJDX8MzhQDXkx5k+3vrUYCLhoPRmRAm3B+3gRbVb2JSRsA8i9wpRaaD8gCyMNMKAdxyU3OgzmXADx4jGurX6kd6KaP1JbpnyVT2I8RZqwi7sBsh4fjrqrYDnc+zDnSM8zyZm2TVMYk1gsbGCo6gBSeSmbODXtqeGNWEFR+UaMOcShcP3r2XnF9RjimuCo7MOZuasHOcYgASD5zfDhCN4MaIG1L6D4aBhwlc4Shb5D4RgxEz9cKrgyK3ZRdC1AHKKBgA0T9+h1FMBdwX8Sa3kPf9uBQtH9DB/oQkWgokLEbo0PgUWoYKV0I1wd8z3zmm3kIg/RciP/wcURkKv+58UHg2HzP8PcDHR+Z5Jq4Ra2A24Woy6Q8qdfiSxWNF5nklNOAs4tHM0Sed5JrxoEPRTCc3wC7yi6RxPRSshCy9Uzj1XnkpYOrghLRL8qpyMT/v6zf+8vgFG80iK7km8qAAAAABJRU5ErkJggg==" vertex="1" parent="4bJk6xh4GVJk0JVJR18--13">
          <mxGeometry width="163" height="25" as="geometry" />
        </mxCell>
        <mxCell id="4bJk6xh4GVJk0JVJR18--15" value="" style="group" vertex="1" connectable="0" parent="1">
          <mxGeometry x="70" y="590" width="154" height="50" as="geometry" />
        </mxCell>
        <mxCell id="node18" value="RefreshVisual()" style="label;fontStyle=0;strokeColor=default;fillColor=none;align=left;verticalAlign=middle;overflow=hidden;spacingLeft=28;spacingRight=4;rotatable=0;points=[[0,0.5],[1,0.5]];portConstraint=eastwest;imageWidth=16;imageHeight=16;image=data:image/png,iVBORw0KGgoAAAANSUhEUgAAACAAAAAgCAYAAABzenr0AAACPklEQVR4Xu2WuUsDQRTG03hbe7USi9jZaGNjtNBokyjZFQUrG/GsbATvUtTOSm2DuyERBMH7qtIE2VWwEDz+Aa2s1vf2kNmXZNfsERD8YIqdnZnfN2/fvNlA4F+/VGZnvEwWuQlZ4Bay4mgdfe+rXhNDVQA/gabo7eU+GW+m43wRC7/bjymHW/2lM0Hhgz2tSrgjqKQ2S2AiH7yzrVltOSZSfD2d70pWcNZEelszIYn8El3DsX4DxxbtCik3e1EtCgI/Q9dxJEdwkbt63h2rpGsVLSkxVO4Enj0eraFrscJ1JYGflARu0TJXcJDX8MzhQDXkx5k+3vrUYCLhoPRmRAm3B+3gRbVb2JSRsA8i9wpRaaD8gCyMNMKAdxyU3OgzmXADx4jGurX6kd6KaP1JbpnyVT2I8RZqwi7sBsh4fjrqrYDnc+zDnSM8zyZm2TVMYk1gsbGCo6gBSeSmbODXtqeGNWEFR+UaMOcShcP3r2XnF9RjimuCo7MOZuasHOcYgASD5zfDhCN4MaIG1L6D4aBhwlc4Shb5D4RgxEz9cKrgyK3ZRdC1AHKKBgA0T9+h1FMBdwX8Sa3kPf9uBQtH9DB/oQkWgokLEbo0PgUWoYKV0I1wd8z3zmm3kIg/RciP/wcURkKv+58UHg2HzP8PcDHR+Z5Jq4Ra2A24Woy6Q8qdfiSxWNF5nklNOAs4tHM0Sed5JrxoEPRTCc3wC7yi6RxPRSshCy9Uzj1XnkpYOrghLRL8qpyMT/v6zf+8vgFG80iK7km8qAAAAABJRU5ErkJggg==" parent="4bJk6xh4GVJk0JVJR18--15" vertex="1">
          <mxGeometry y="25" width="154" height="25" as="geometry" />
        </mxCell>
        <mxCell id="4bJk6xh4GVJk0JVJR18--14" value="PlayerHealthView : M" style="label;fontStyle=0;strokeColor=default;fillColor=none;align=left;verticalAlign=middle;overflow=hidden;spacingLeft=28;spacingRight=4;rotatable=0;points=[[0,0.5],[1,0.5]];portConstraint=eastwest;imageWidth=16;imageHeight=16;image=data:image/png,iVBORw0KGgoAAAANSUhEUgAAACAAAAAgCAYAAABzenr0AAACPklEQVR4Xu2WuUsDQRTG03hbe7USi9jZaGNjtNBokyjZFQUrG/GsbATvUtTOSm2DuyERBMH7qtIE2VWwEDz+Aa2s1vf2kNmXZNfsERD8YIqdnZnfN2/fvNlA4F+/VGZnvEwWuQlZ4Bay4mgdfe+rXhNDVQA/gabo7eU+GW+m43wRC7/bjymHW/2lM0Hhgz2tSrgjqKQ2S2AiH7yzrVltOSZSfD2d70pWcNZEelszIYn8El3DsX4DxxbtCik3e1EtCgI/Q9dxJEdwkbt63h2rpGsVLSkxVO4Enj0eraFrscJ1JYGflARu0TJXcJDX8MzhQDXkx5k+3vrUYCLhoPRmRAm3B+3gRbVb2JSRsA8i9wpRaaD8gCyMNMKAdxyU3OgzmXADx4jGurX6kd6KaP1JbpnyVT2I8RZqwi7sBsh4fjrqrYDnc+zDnSM8zyZm2TVMYk1gsbGCo6gBSeSmbODXtqeGNWEFR+UaMOcShcP3r2XnF9RjimuCo7MOZuasHOcYgASD5zfDhCN4MaIG1L6D4aBhwlc4Shb5D4RgxEz9cKrgyK3ZRdC1AHKKBgA0T9+h1FMBdwX8Sa3kPf9uBQtH9DB/oQkWgokLEbo0PgUWoYKV0I1wd8z3zmm3kIg/RciP/wcURkKv+58UHg2HzP8PcDHR+Z5Jq4Ra2A24Woy6Q8qdfiSxWNF5nklNOAs4tHM0Sed5JrxoEPRTCc3wC7yi6RxPRSshCy9Uzj1XnkpYOrghLRL8qpyMT/v6zf+8vgFG80iK7km8qAAAAABJRU5ErkJggg==" vertex="1" parent="4bJk6xh4GVJk0JVJR18--15">
          <mxGeometry width="154" height="25" as="geometry" />
        </mxCell>
        <mxCell id="4bJk6xh4GVJk0JVJR18--17" value="" style="group" vertex="1" connectable="0" parent="1">
          <mxGeometry x="486" y="550" width="190" height="50" as="geometry" />
        </mxCell>
        <mxCell id="node22" value="DecreaseHealth(int amount)" style="label;fontStyle=0;strokeColor=default;fillColor=none;align=left;verticalAlign=middle;overflow=hidden;spacingLeft=28;spacingRight=4;rotatable=0;points=[[0,0.5],[1,0.5]];portConstraint=eastwest;imageWidth=16;imageHeight=16;image=data:image/png,iVBORw0KGgoAAAANSUhEUgAAACAAAAAgCAYAAABzenr0AAACPklEQVR4Xu2WuUsDQRTG03hbe7USi9jZaGNjtNBokyjZFQUrG/GsbATvUtTOSm2DuyERBMH7qtIE2VWwEDz+Aa2s1vf2kNmXZNfsERD8YIqdnZnfN2/fvNlA4F+/VGZnvEwWuQlZ4Bay4mgdfe+rXhNDVQA/gabo7eU+GW+m43wRC7/bjymHW/2lM0Hhgz2tSrgjqKQ2S2AiH7yzrVltOSZSfD2d70pWcNZEelszIYn8El3DsX4DxxbtCik3e1EtCgI/Q9dxJEdwkbt63h2rpGsVLSkxVO4Enj0eraFrscJ1JYGflARu0TJXcJDX8MzhQDXkx5k+3vrUYCLhoPRmRAm3B+3gRbVb2JSRsA8i9wpRaaD8gCyMNMKAdxyU3OgzmXADx4jGurX6kd6KaP1JbpnyVT2I8RZqwi7sBsh4fjrqrYDnc+zDnSM8zyZm2TVMYk1gsbGCo6gBSeSmbODXtqeGNWEFR+UaMOcShcP3r2XnF9RjimuCo7MOZuasHOcYgASD5zfDhCN4MaIG1L6D4aBhwlc4Shb5D4RgxEz9cKrgyK3ZRdC1AHKKBgA0T9+h1FMBdwX8Sa3kPf9uBQtH9DB/oQkWgokLEbo0PgUWoYKV0I1wd8z3zmm3kIg/RciP/wcURkKv+58UHg2HzP8PcDHR+Z5Jq4Ra2A24Woy6Q8qdfiSxWNF5nklNOAs4tHM0Sed5JrxoEPRTCc3wC7yi6RxPRSshCy9Uzj1XnkpYOrghLRL8qpyMT/v6zf+8vgFG80iK7km8qAAAAABJRU5ErkJggg==" parent="4bJk6xh4GVJk0JVJR18--17" vertex="1">
          <mxGeometry y="25" width="190" height="25" as="geometry" />
        </mxCell>
        <mxCell id="4bJk6xh4GVJk0JVJR18--16" value="PlayerHealth : M" style="label;fontStyle=0;strokeColor=default;fillColor=none;align=left;verticalAlign=middle;overflow=hidden;spacingLeft=28;spacingRight=4;rotatable=0;points=[[0,0.5],[1,0.5]];portConstraint=eastwest;imageWidth=16;imageHeight=16;image=data:image/png,iVBORw0KGgoAAAANSUhEUgAAACAAAAAgCAYAAABzenr0AAACPklEQVR4Xu2WuUsDQRTG03hbe7USi9jZaGNjtNBokyjZFQUrG/GsbATvUtTOSm2DuyERBMH7qtIE2VWwEDz+Aa2s1vf2kNmXZNfsERD8YIqdnZnfN2/fvNlA4F+/VGZnvEwWuQlZ4Bay4mgdfe+rXhNDVQA/gabo7eU+GW+m43wRC7/bjymHW/2lM0Hhgz2tSrgjqKQ2S2AiH7yzrVltOSZSfD2d70pWcNZEelszIYn8El3DsX4DxxbtCik3e1EtCgI/Q9dxJEdwkbt63h2rpGsVLSkxVO4Enj0eraFrscJ1JYGflARu0TJXcJDX8MzhQDXkx5k+3vrUYCLhoPRmRAm3B+3gRbVb2JSRsA8i9wpRaaD8gCyMNMKAdxyU3OgzmXADx4jGurX6kd6KaP1JbpnyVT2I8RZqwi7sBsh4fjrqrYDnc+zDnSM8zyZm2TVMYk1gsbGCo6gBSeSmbODXtqeGNWEFR+UaMOcShcP3r2XnF9RjimuCo7MOZuasHOcYgASD5zfDhCN4MaIG1L6D4aBhwlc4Shb5D4RgxEz9cKrgyK3ZRdC1AHKKBgA0T9+h1FMBdwX8Sa3kPf9uBQtH9DB/oQkWgokLEbo0PgUWoYKV0I1wd8z3zmm3kIg/RciP/wcURkKv+58UHg2HzP8PcDHR+Z5Jq4Ra2A24Woy6Q8qdfiSxWNF5nklNOAs4tHM0Sed5JrxoEPRTCc3wC7yi6RxPRSshCy9Uzj1XnkpYOrghLRL8qpyMT/v6zf+8vgFG80iK7km8qAAAAABJRU5ErkJggg==" vertex="1" parent="4bJk6xh4GVJk0JVJR18--17">
          <mxGeometry width="190" height="25" as="geometry" />
        </mxCell>
        <mxCell id="4bJk6xh4GVJk0JVJR18--19" value="" style="group" vertex="1" connectable="0" parent="1">
          <mxGeometry x="70" y="789" width="190" height="70" as="geometry" />
        </mxCell>
        <mxCell id="node4" value="IHealth" style="label;fontStyle=0;strokeColor=default;fillColor=none;align=left;verticalAlign=middle;overflow=hidden;spacingLeft=28;spacingRight=4;rotatable=0;points=[[0,0.5],[1,0.5]];portConstraint=eastwest;imageWidth=16;imageHeight=16;image=data:image/png,iVBORw0KGgoAAAANSUhEUgAAACAAAAAgCAYAAABzenr0AAABAklEQVR4XmNgGAWjYBSMAiqAyJ5PIiGd35tCun6cD+n+/hmMQWygGEgOXT1VQXDXt+CQru8fgfg/DvwRpAZdH1UA1PJ/IIvcCo78N/So+K9uFgrGIDZIDOqIf1R3RGjbZ1GYz62j5/5XNfLFikFysJAA6UE3BwOENvxnC+763g6Mv2cgDGKDxNDVQeIc6PP8wxiWomOQGrAjgHrQzcEAId0/OjDiESiGoQ6UyIByoKBGtxAdg9RAzPpxHt0cDABU+BSk2MCtGIwxHIOG1c3CMCxExyA1UPWf0O3DAAPvgIGOggFPhMQCmmVDUsCAFkQwMKBFMQwMaGU0CkbBKBgFQx4AAMHA5vI38L6PAAAAAElFTkSuQmCC" parent="4bJk6xh4GVJk0JVJR18--19" vertex="1">
          <mxGeometry width="190" height="25" as="geometry" />
        </mxCell>
        <mxCell id="4bJk6xh4GVJk0JVJR18--18" value="DecreaseHealth(int amount)&#xa;Health { get;}" style="label;fontStyle=0;strokeColor=default;fillColor=none;align=left;verticalAlign=middle;overflow=hidden;spacingLeft=28;spacingRight=4;rotatable=0;points=[[0,0.5],[1,0.5]];portConstraint=eastwest;imageWidth=16;imageHeight=16;image=data:image/png,iVBORw0KGgoAAAANSUhEUgAAACAAAAAgCAYAAABzenr0AAABAklEQVR4XmNgGAWjYBSMAiqAyJ5PIiGd35tCun6cD+n+/hmMQWygGEgOXT1VQXDXt+CQru8fgfg/DvwRpAZdH1UA1PJ/IIvcCo78N/So+K9uFgrGIDZIDOqIf1R3RGjbZ1GYz62j5/5XNfLFikFysJAA6UE3BwOENvxnC+763g6Mv2cgDGKDxNDVQeIc6PP8wxiWomOQGrAjgHrQzcEAId0/OjDiESiGoQ6UyIByoKBGtxAdg9RAzPpxHt0cDABU+BSk2MCtGIwxHIOG1c3CMCxExyA1UPWf0O3DAAPvgIGOggFPhMQCmmVDUsCAFkQwMKBFMQwMaGU0CkbBKBgFQx4AAMHA5vI38L6PAAAAAElFTkSuQmCC" vertex="1" parent="4bJk6xh4GVJk0JVJR18--19">
          <mxGeometry y="25" width="190" height="45" as="geometry" />
        </mxCell>
        <mxCell id="4bJk6xh4GVJk0JVJR18--22" value="" style="group" vertex="1" connectable="0" parent="1">
          <mxGeometry x="450" y="764" width="214" height="50" as="geometry" />
        </mxCell>
        <mxCell id="node21" value="DecreaseHealth(int amount)" style="label;fontStyle=0;strokeColor=default;fillColor=none;align=left;verticalAlign=middle;overflow=hidden;spacingLeft=28;spacingRight=4;rotatable=0;points=[[0,0.5],[1,0.5]];portConstraint=eastwest;imageWidth=16;imageHeight=16;image=data:image/png,iVBORw0KGgoAAAANSUhEUgAAACAAAAAgCAYAAABzenr0AAACPklEQVR4Xu2WuUsDQRTG03hbe7USi9jZaGNjtNBokyjZFQUrG/GsbATvUtTOSm2DuyERBMH7qtIE2VWwEDz+Aa2s1vf2kNmXZNfsERD8YIqdnZnfN2/fvNlA4F+/VGZnvEwWuQlZ4Bay4mgdfe+rXhNDVQA/gabo7eU+GW+m43wRC7/bjymHW/2lM0Hhgz2tSrgjqKQ2S2AiH7yzrVltOSZSfD2d70pWcNZEelszIYn8El3DsX4DxxbtCik3e1EtCgI/Q9dxJEdwkbt63h2rpGsVLSkxVO4Enj0eraFrscJ1JYGflARu0TJXcJDX8MzhQDXkx5k+3vrUYCLhoPRmRAm3B+3gRbVb2JSRsA8i9wpRaaD8gCyMNMKAdxyU3OgzmXADx4jGurX6kd6KaP1JbpnyVT2I8RZqwi7sBsh4fjrqrYDnc+zDnSM8zyZm2TVMYk1gsbGCo6gBSeSmbODXtqeGNWEFR+UaMOcShcP3r2XnF9RjimuCo7MOZuasHOcYgASD5zfDhCN4MaIG1L6D4aBhwlc4Shb5D4RgxEz9cKrgyK3ZRdC1AHKKBgA0T9+h1FMBdwX8Sa3kPf9uBQtH9DB/oQkWgokLEbo0PgUWoYKV0I1wd8z3zmm3kIg/RciP/wcURkKv+58UHg2HzP8PcDHR+Z5Jq4Ra2A24Woy6Q8qdfiSxWNF5nklNOAs4tHM0Sed5JrxoEPRTCc3wC7yi6RxPRSshCy9Uzj1XnkpYOrghLRL8qpyMT/v6zf+8vgFG80iK7km8qAAAAABJRU5ErkJggg==" parent="4bJk6xh4GVJk0JVJR18--22" vertex="1">
          <mxGeometry y="25" width="214" height="25" as="geometry" />
        </mxCell>
        <mxCell id="4bJk6xh4GVJk0JVJR18--20" value="Enemy : M" style="label;fontStyle=0;strokeColor=default;fillColor=none;align=left;verticalAlign=middle;overflow=hidden;spacingLeft=28;spacingRight=4;rotatable=0;points=[[0,0.5],[1,0.5]];portConstraint=eastwest;imageWidth=16;imageHeight=16;image=data:image/png,iVBORw0KGgoAAAANSUhEUgAAACAAAAAgCAYAAABzenr0AAACPklEQVR4Xu2WuUsDQRTG03hbe7USi9jZaGNjtNBokyjZFQUrG/GsbATvUtTOSm2DuyERBMH7qtIE2VWwEDz+Aa2s1vf2kNmXZNfsERD8YIqdnZnfN2/fvNlA4F+/VGZnvEwWuQlZ4Bay4mgdfe+rXhNDVQA/gabo7eU+GW+m43wRC7/bjymHW/2lM0Hhgz2tSrgjqKQ2S2AiH7yzrVltOSZSfD2d70pWcNZEelszIYn8El3DsX4DxxbtCik3e1EtCgI/Q9dxJEdwkbt63h2rpGsVLSkxVO4Enj0eraFrscJ1JYGflARu0TJXcJDX8MzhQDXkx5k+3vrUYCLhoPRmRAm3B+3gRbVb2JSRsA8i9wpRaaD8gCyMNMKAdxyU3OgzmXADx4jGurX6kd6KaP1JbpnyVT2I8RZqwi7sBsh4fjrqrYDnc+zDnSM8zyZm2TVMYk1gsbGCo6gBSeSmbODXtqeGNWEFR+UaMOcShcP3r2XnF9RjimuCo7MOZuasHOcYgASD5zfDhCN4MaIG1L6D4aBhwlc4Shb5D4RgxEz9cKrgyK3ZRdC1AHKKBgA0T9+h1FMBdwX8Sa3kPf9uBQtH9DB/oQkWgokLEbo0PgUWoYKV0I1wd8z3zmm3kIg/RciP/wcURkKv+58UHg2HzP8PcDHR+Z5Jq4Ra2A24Woy6Q8qdfiSxWNF5nklNOAs4tHM0Sed5JrxoEPRTCc3wC7yi6RxPRSshCy9Uzj1XnkpYOrghLRL8qpyMT/v6zf+8vgFG80iK7km8qAAAAABJRU5ErkJggg==" vertex="1" parent="4bJk6xh4GVJk0JVJR18--22">
          <mxGeometry width="214" height="25" as="geometry" />
        </mxCell>
        <mxCell id="4bJk6xh4GVJk0JVJR18--29" value="" style="group" vertex="1" connectable="0" parent="1">
          <mxGeometry x="354" y="950" width="214" height="120" as="geometry" />
        </mxCell>
        <mxCell id="node3" value="int Columns&#xa;int Raws&#xa;float XSpacing&#xa;float YSpacing&#xa;Enemy EnemyPrefab&#xa;GameObject EnemyBulletPrefab" style="label;fontStyle=0;strokeColor=default;fillColor=none;align=left;verticalAlign=middle;overflow=hidden;spacingLeft=28;spacingRight=4;rotatable=0;points=[[0,0.5],[1,0.5]];portConstraint=eastwest;imageWidth=16;imageHeight=16;image=data:image/png,iVBORw0KGgoAAAANSUhEUgAAACAAAAAgCAYAAABzenr0AAACPklEQVR4Xu2WuUsDQRTG03hbe7USi9jZaGNjtNBokyjZFQUrG/GsbATvUtTOSm2DuyERBMH7qtIE2VWwEDz+Aa2s1vf2kNmXZNfsERD8YIqdnZnfN2/fvNlA4F+/VGZnvEwWuQlZ4Bay4mgdfe+rXhNDVQA/gabo7eU+GW+m43wRC7/bjymHW/2lM0Hhgz2tSrgjqKQ2S2AiH7yzrVltOSZSfD2d70pWcNZEelszIYn8El3DsX4DxxbtCik3e1EtCgI/Q9dxJEdwkbt63h2rpGsVLSkxVO4Enj0eraFrscJ1JYGflARu0TJXcJDX8MzhQDXkx5k+3vrUYCLhoPRmRAm3B+3gRbVb2JSRsA8i9wpRaaD8gCyMNMKAdxyU3OgzmXADx4jGurX6kd6KaP1JbpnyVT2I8RZqwi7sBsh4fjrqrYDnc+zDnSM8zyZm2TVMYk1gsbGCo6gBSeSmbODXtqeGNWEFR+UaMOcShcP3r2XnF9RjimuCo7MOZuasHOcYgASD5zfDhCN4MaIG1L6D4aBhwlc4Shb5D4RgxEz9cKrgyK3ZRdC1AHKKBgA0T9+h1FMBdwX8Sa3kPf9uBQtH9DB/oQkWgokLEbo0PgUWoYKV0I1wd8z3zmm3kIg/RciP/wcURkKv+58UHg2HzP8PcDHR+Z5Jq4Ra2A24Woy6Q8qdfiSxWNF5nklNOAs4tHM0Sed5JrxoEPRTCc3wC7yi6RxPRSshCy9Uzj1XnkpYOrghLRL8qpyMT/v6zf+8vgFG80iK7km8qAAAAABJRU5ErkJggg==" parent="4bJk6xh4GVJk0JVJR18--29" vertex="1">
          <mxGeometry y="30" width="214" height="90" as="geometry" />
        </mxCell>
        <mxCell id="4bJk6xh4GVJk0JVJR18--28" value="EnemySpawnSettings : SO" style="label;fontStyle=0;strokeColor=default;fillColor=none;align=left;verticalAlign=middle;overflow=hidden;spacingLeft=28;spacingRight=4;rotatable=0;points=[[0,0.5],[1,0.5]];portConstraint=eastwest;imageWidth=16;imageHeight=16;image=data:image/png,iVBORw0KGgoAAAANSUhEUgAAACAAAAAgCAYAAABzenr0AAACPklEQVR4Xu2WuUsDQRTG03hbe7USi9jZaGNjtNBokyjZFQUrG/GsbATvUtTOSm2DuyERBMH7qtIE2VWwEDz+Aa2s1vf2kNmXZNfsERD8YIqdnZnfN2/fvNlA4F+/VGZnvEwWuQlZ4Bay4mgdfe+rXhNDVQA/gabo7eU+GW+m43wRC7/bjymHW/2lM0Hhgz2tSrgjqKQ2S2AiH7yzrVltOSZSfD2d70pWcNZEelszIYn8El3DsX4DxxbtCik3e1EtCgI/Q9dxJEdwkbt63h2rpGsVLSkxVO4Enj0eraFrscJ1JYGflARu0TJXcJDX8MzhQDXkx5k+3vrUYCLhoPRmRAm3B+3gRbVb2JSRsA8i9wpRaaD8gCyMNMKAdxyU3OgzmXADx4jGurX6kd6KaP1JbpnyVT2I8RZqwi7sBsh4fjrqrYDnc+zDnSM8zyZm2TVMYk1gsbGCo6gBSeSmbODXtqeGNWEFR+UaMOcShcP3r2XnF9RjimuCo7MOZuasHOcYgASD5zfDhCN4MaIG1L6D4aBhwlc4Shb5D4RgxEz9cKrgyK3ZRdC1AHKKBgA0T9+h1FMBdwX8Sa3kPf9uBQtH9DB/oQkWgokLEbo0PgUWoYKV0I1wd8z3zmm3kIg/RciP/wcURkKv+58UHg2HzP8PcDHR+Z5Jq4Ra2A24Woy6Q8qdfiSxWNF5nklNOAs4tHM0Sed5JrxoEPRTCc3wC7yi6RxPRSshCy9Uzj1XnkpYOrghLRL8qpyMT/v6zf+8vgFG80iK7km8qAAAAABJRU5ErkJggg==" vertex="1" parent="4bJk6xh4GVJk0JVJR18--29">
          <mxGeometry width="214" height="30" as="geometry" />
        </mxCell>
        <mxCell id="4bJk6xh4GVJk0JVJR18--33" value="" style="group" vertex="1" connectable="0" parent="1">
          <mxGeometry x="-160" y="1395" width="120" height="50" as="geometry" />
        </mxCell>
        <mxCell id="node7" value="ActivateBullet()" style="label;fontStyle=0;strokeColor=default;fillColor=none;align=left;verticalAlign=middle;overflow=hidden;spacingLeft=28;spacingRight=4;rotatable=0;points=[[0,0.5],[1,0.5]];portConstraint=eastwest;imageWidth=16;imageHeight=16;image=data:image/png,iVBORw0KGgoAAAANSUhEUgAAACAAAAAgCAYAAABzenr0AAACPklEQVR4Xu2WuUsDQRTG03hbe7USi9jZaGNjtNBokyjZFQUrG/GsbATvUtTOSm2DuyERBMH7qtIE2VWwEDz+Aa2s1vf2kNmXZNfsERD8YIqdnZnfN2/fvNlA4F+/VGZnvEwWuQlZ4Bay4mgdfe+rXhNDVQA/gabo7eU+GW+m43wRC7/bjymHW/2lM0Hhgz2tSrgjqKQ2S2AiH7yzrVltOSZSfD2d70pWcNZEelszIYn8El3DsX4DxxbtCik3e1EtCgI/Q9dxJEdwkbt63h2rpGsVLSkxVO4Enj0eraFrscJ1JYGflARu0TJXcJDX8MzhQDXkx5k+3vrUYCLhoPRmRAm3B+3gRbVb2JSRsA8i9wpRaaD8gCyMNMKAdxyU3OgzmXADx4jGurX6kd6KaP1JbpnyVT2I8RZqwi7sBsh4fjrqrYDnc+zDnSM8zyZm2TVMYk1gsbGCo6gBSeSmbODXtqeGNWEFR+UaMOcShcP3r2XnF9RjimuCo7MOZuasHOcYgASD5zfDhCN4MaIG1L6D4aBhwlc4Shb5D4RgxEz9cKrgyK3ZRdC1AHKKBgA0T9+h1FMBdwX8Sa3kPf9uBQtH9DB/oQkWgokLEbo0PgUWoYKV0I1wd8z3zmm3kIg/RciP/wcURkKv+58UHg2HzP8PcDHR+Z5Jq4Ra2A24Woy6Q8qdfiSxWNF5nklNOAs4tHM0Sed5JrxoEPRTCc3wC7yi6RxPRSshCy9Uzj1XnkpYOrghLRL8qpyMT/v6zf+8vgFG80iK7km8qAAAAABJRU5ErkJggg==" parent="4bJk6xh4GVJk0JVJR18--33" vertex="1">
          <mxGeometry y="25" width="119.99999999999999" height="25" as="geometry" />
        </mxCell>
        <mxCell id="4bJk6xh4GVJk0JVJR18--32" value="PlayerBullet : M" style="label;fontStyle=0;strokeColor=default;fillColor=none;align=left;verticalAlign=middle;overflow=hidden;spacingLeft=28;spacingRight=4;rotatable=0;points=[[0,0.5],[1,0.5]];portConstraint=eastwest;imageWidth=16;imageHeight=16;image=data:image/png,iVBORw0KGgoAAAANSUhEUgAAACAAAAAgCAYAAABzenr0AAACPklEQVR4Xu2WuUsDQRTG03hbe7USi9jZaGNjtNBokyjZFQUrG/GsbATvUtTOSm2DuyERBMH7qtIE2VWwEDz+Aa2s1vf2kNmXZNfsERD8YIqdnZnfN2/fvNlA4F+/VGZnvEwWuQlZ4Bay4mgdfe+rXhNDVQA/gabo7eU+GW+m43wRC7/bjymHW/2lM0Hhgz2tSrgjqKQ2S2AiH7yzrVltOSZSfD2d70pWcNZEelszIYn8El3DsX4DxxbtCik3e1EtCgI/Q9dxJEdwkbt63h2rpGsVLSkxVO4Enj0eraFrscJ1JYGflARu0TJXcJDX8MzhQDXkx5k+3vrUYCLhoPRmRAm3B+3gRbVb2JSRsA8i9wpRaaD8gCyMNMKAdxyU3OgzmXADx4jGurX6kd6KaP1JbpnyVT2I8RZqwi7sBsh4fjrqrYDnc+zDnSM8zyZm2TVMYk1gsbGCo6gBSeSmbODXtqeGNWEFR+UaMOcShcP3r2XnF9RjimuCo7MOZuasHOcYgASD5zfDhCN4MaIG1L6D4aBhwlc4Shb5D4RgxEz9cKrgyK3ZRdC1AHKKBgA0T9+h1FMBdwX8Sa3kPf9uBQtH9DB/oQkWgokLEbo0PgUWoYKV0I1wd8z3zmm3kIg/RciP/wcURkKv+58UHg2HzP8PcDHR+Z5Jq4Ra2A24Woy6Q8qdfiSxWNF5nklNOAs4tHM0Sed5JrxoEPRTCc3wC7yi6RxPRSshCy9Uzj1XnkpYOrghLRL8qpyMT/v6zf+8vgFG80iK7km8qAAAAABJRU5ErkJggg==" vertex="1" parent="4bJk6xh4GVJk0JVJR18--33">
          <mxGeometry width="119.99999999999999" height="25" as="geometry" />
        </mxCell>
        <mxCell id="4bJk6xh4GVJk0JVJR18--37" value="" style="group" vertex="1" connectable="0" parent="1">
          <mxGeometry x="426" y="1205" width="144" height="60" as="geometry" />
        </mxCell>
        <mxCell id="node8" value="float Speed &#xa;int MaxHealth" style="label;fontStyle=0;strokeColor=default;fillColor=none;align=left;verticalAlign=middle;overflow=hidden;spacingLeft=28;spacingRight=4;rotatable=0;points=[[0,0.5],[1,0.5]];portConstraint=eastwest;imageWidth=16;imageHeight=16;image=data:image/png,iVBORw0KGgoAAAANSUhEUgAAACAAAAAgCAYAAABzenr0AAACPklEQVR4Xu2WuUsDQRTG03hbe7USi9jZaGNjtNBokyjZFQUrG/GsbATvUtTOSm2DuyERBMH7qtIE2VWwEDz+Aa2s1vf2kNmXZNfsERD8YIqdnZnfN2/fvNlA4F+/VGZnvEwWuQlZ4Bay4mgdfe+rXhNDVQA/gabo7eU+GW+m43wRC7/bjymHW/2lM0Hhgz2tSrgjqKQ2S2AiH7yzrVltOSZSfD2d70pWcNZEelszIYn8El3DsX4DxxbtCik3e1EtCgI/Q9dxJEdwkbt63h2rpGsVLSkxVO4Enj0eraFrscJ1JYGflARu0TJXcJDX8MzhQDXkx5k+3vrUYCLhoPRmRAm3B+3gRbVb2JSRsA8i9wpRaaD8gCyMNMKAdxyU3OgzmXADx4jGurX6kd6KaP1JbpnyVT2I8RZqwi7sBsh4fjrqrYDnc+zDnSM8zyZm2TVMYk1gsbGCo6gBSeSmbODXtqeGNWEFR+UaMOcShcP3r2XnF9RjimuCo7MOZuasHOcYgASD5zfDhCN4MaIG1L6D4aBhwlc4Shb5D4RgxEz9cKrgyK3ZRdC1AHKKBgA0T9+h1FMBdwX8Sa3kPf9uBQtH9DB/oQkWgokLEbo0PgUWoYKV0I1wd8z3zmm3kIg/RciP/wcURkKv+58UHg2HzP8PcDHR+Z5Jq4Ra2A24Woy6Q8qdfiSxWNF5nklNOAs4tHM0Sed5JrxoEPRTCc3wC7yi6RxPRSshCy9Uzj1XnkpYOrghLRL8qpyMT/v6zf+8vgFG80iK7km8qAAAAABJRU5ErkJggg==" parent="4bJk6xh4GVJk0JVJR18--37" vertex="1">
          <mxGeometry y="25" width="144" height="35" as="geometry" />
        </mxCell>
        <mxCell id="4bJk6xh4GVJk0JVJR18--36" value="PlayerSettings : SO" style="label;fontStyle=0;strokeColor=default;fillColor=none;align=left;verticalAlign=middle;overflow=hidden;spacingLeft=28;spacingRight=4;rotatable=0;points=[[0,0.5],[1,0.5]];portConstraint=eastwest;imageWidth=16;imageHeight=16;image=data:image/png,iVBORw0KGgoAAAANSUhEUgAAACAAAAAgCAYAAABzenr0AAACPklEQVR4Xu2WuUsDQRTG03hbe7USi9jZaGNjtNBokyjZFQUrG/GsbATvUtTOSm2DuyERBMH7qtIE2VWwEDz+Aa2s1vf2kNmXZNfsERD8YIqdnZnfN2/fvNlA4F+/VGZnvEwWuQlZ4Bay4mgdfe+rXhNDVQA/gabo7eU+GW+m43wRC7/bjymHW/2lM0Hhgz2tSrgjqKQ2S2AiH7yzrVltOSZSfD2d70pWcNZEelszIYn8El3DsX4DxxbtCik3e1EtCgI/Q9dxJEdwkbt63h2rpGsVLSkxVO4Enj0eraFrscJ1JYGflARu0TJXcJDX8MzhQDXkx5k+3vrUYCLhoPRmRAm3B+3gRbVb2JSRsA8i9wpRaaD8gCyMNMKAdxyU3OgzmXADx4jGurX6kd6KaP1JbpnyVT2I8RZqwi7sBsh4fjrqrYDnc+zDnSM8zyZm2TVMYk1gsbGCo6gBSeSmbODXtqeGNWEFR+UaMOcShcP3r2XnF9RjimuCo7MOZuasHOcYgASD5zfDhCN4MaIG1L6D4aBhwlc4Shb5D4RgxEz9cKrgyK3ZRdC1AHKKBgA0T9+h1FMBdwX8Sa3kPf9uBQtH9DB/oQkWgokLEbo0PgUWoYKV0I1wd8z3zmm3kIg/RciP/wcURkKv+58UHg2HzP8PcDHR+Z5Jq4Ra2A24Woy6Q8qdfiSxWNF5nklNOAs4tHM0Sed5JrxoEPRTCc3wC7yi6RxPRSshCy9Uzj1XnkpYOrghLRL8qpyMT/v6zf+8vgFG80iK7km8qAAAAABJRU5ErkJggg==" vertex="1" parent="4bJk6xh4GVJk0JVJR18--37">
          <mxGeometry width="144" height="25" as="geometry" />
        </mxCell>
        <mxCell id="4bJk6xh4GVJk0JVJR18--39" value="" style="group" vertex="1" connectable="0" parent="1">
          <mxGeometry x="410" y="1460" width="207" height="50" as="geometry" />
        </mxCell>
        <mxCell id="node14" value="MovePlayer(Vector2 movement)" style="label;fontStyle=0;strokeColor=default;fillColor=none;align=left;verticalAlign=middle;overflow=hidden;spacingLeft=28;spacingRight=4;rotatable=0;points=[[0,0.5],[1,0.5]];portConstraint=eastwest;imageWidth=16;imageHeight=16;image=data:image/png,iVBORw0KGgoAAAANSUhEUgAAACAAAAAgCAYAAABzenr0AAACPklEQVR4Xu2WuUsDQRTG03hbe7USi9jZaGNjtNBokyjZFQUrG/GsbATvUtTOSm2DuyERBMH7qtIE2VWwEDz+Aa2s1vf2kNmXZNfsERD8YIqdnZnfN2/fvNlA4F+/VGZnvEwWuQlZ4Bay4mgdfe+rXhNDVQA/gabo7eU+GW+m43wRC7/bjymHW/2lM0Hhgz2tSrgjqKQ2S2AiH7yzrVltOSZSfD2d70pWcNZEelszIYn8El3DsX4DxxbtCik3e1EtCgI/Q9dxJEdwkbt63h2rpGsVLSkxVO4Enj0eraFrscJ1JYGflARu0TJXcJDX8MzhQDXkx5k+3vrUYCLhoPRmRAm3B+3gRbVb2JSRsA8i9wpRaaD8gCyMNMKAdxyU3OgzmXADx4jGurX6kd6KaP1JbpnyVT2I8RZqwi7sBsh4fjrqrYDnc+zDnSM8zyZm2TVMYk1gsbGCo6gBSeSmbODXtqeGNWEFR+UaMOcShcP3r2XnF9RjimuCo7MOZuasHOcYgASD5zfDhCN4MaIG1L6D4aBhwlc4Shb5D4RgxEz9cKrgyK3ZRdC1AHKKBgA0T9+h1FMBdwX8Sa3kPf9uBQtH9DB/oQkWgokLEbo0PgUWoYKV0I1wd8z3zmm3kIg/RciP/wcURkKv+58UHg2HzP8PcDHR+Z5Jq4Ra2A24Woy6Q8qdfiSxWNF5nklNOAs4tHM0Sed5JrxoEPRTCc3wC7yi6RxPRSshCy9Uzj1XnkpYOrghLRL8qpyMT/v6zf+8vgFG80iK7km8qAAAAABJRU5ErkJggg==" parent="4bJk6xh4GVJk0JVJR18--39" vertex="1">
          <mxGeometry y="25" width="207" height="25" as="geometry" />
        </mxCell>
        <mxCell id="4bJk6xh4GVJk0JVJR18--38" value="PlayerMovement : M" style="label;fontStyle=0;strokeColor=default;fillColor=none;align=left;verticalAlign=middle;overflow=hidden;spacingLeft=28;spacingRight=4;rotatable=0;points=[[0,0.5],[1,0.5]];portConstraint=eastwest;imageWidth=16;imageHeight=16;image=data:image/png,iVBORw0KGgoAAAANSUhEUgAAACAAAAAgCAYAAABzenr0AAACPklEQVR4Xu2WuUsDQRTG03hbe7USi9jZaGNjtNBokyjZFQUrG/GsbATvUtTOSm2DuyERBMH7qtIE2VWwEDz+Aa2s1vf2kNmXZNfsERD8YIqdnZnfN2/fvNlA4F+/VGZnvEwWuQlZ4Bay4mgdfe+rXhNDVQA/gabo7eU+GW+m43wRC7/bjymHW/2lM0Hhgz2tSrgjqKQ2S2AiH7yzrVltOSZSfD2d70pWcNZEelszIYn8El3DsX4DxxbtCik3e1EtCgI/Q9dxJEdwkbt63h2rpGsVLSkxVO4Enj0eraFrscJ1JYGflARu0TJXcJDX8MzhQDXkx5k+3vrUYCLhoPRmRAm3B+3gRbVb2JSRsA8i9wpRaaD8gCyMNMKAdxyU3OgzmXADx4jGurX6kd6KaP1JbpnyVT2I8RZqwi7sBsh4fjrqrYDnc+zDnSM8zyZm2TVMYk1gsbGCo6gBSeSmbODXtqeGNWEFR+UaMOcShcP3r2XnF9RjimuCo7MOZuasHOcYgASD5zfDhCN4MaIG1L6D4aBhwlc4Shb5D4RgxEz9cKrgyK3ZRdC1AHKKBgA0T9+h1FMBdwX8Sa3kPf9uBQtH9DB/oQkWgokLEbo0PgUWoYKV0I1wd8z3zmm3kIg/RciP/wcURkKv+58UHg2HzP8PcDHR+Z5Jq4Ra2A24Woy6Q8qdfiSxWNF5nklNOAs4tHM0Sed5JrxoEPRTCc3wC7yi6RxPRSshCy9Uzj1XnkpYOrghLRL8qpyMT/v6zf+8vgFG80iK7km8qAAAAABJRU5ErkJggg==" vertex="1" parent="4bJk6xh4GVJk0JVJR18--39">
          <mxGeometry width="207" height="25" as="geometry" />
        </mxCell>
        <mxCell id="4bJk6xh4GVJk0JVJR18--41" value="" style="html=1;rounded=1;edgeStyle=orthogonalEdgeStyle;dashed=0;startArrow=none;endArrow=block;endSize=12;strokeColor=#A50040;entryX=1;entryY=0.5;entryDx=0;entryDy=0;fillColor=#d80073;" edge="1" parent="1" target="4bJk6xh4GVJk0JVJR18--40">
          <mxGeometry width="50" height="50" relative="1" as="geometry">
            <Array as="points">
              <mxPoint x="780" y="2113" />
              <mxPoint x="780" y="1792" />
            </Array>
            <mxPoint x="-130" y="2113" as="sourcePoint" />
            <mxPoint x="617" y="1473" as="targetPoint" />
          </mxGeometry>
        </mxCell>
        <mxCell id="4bJk6xh4GVJk0JVJR18--42" value="" style="group" vertex="1" connectable="0" parent="1">
          <mxGeometry x="30" y="1780" width="106" height="50" as="geometry" />
        </mxCell>
        <mxCell id="node25" value="AShooter" style="label;fontStyle=0;strokeColor=default;fillColor=none;align=left;verticalAlign=middle;overflow=hidden;spacingLeft=28;spacingRight=4;rotatable=0;points=[[0,0.5],[1,0.5]];portConstraint=eastwest;imageWidth=16;imageHeight=16;image=data:image/png,iVBORw0KGgoAAAANSUhEUgAAACAAAAAgCAYAAABzenr0AAACPklEQVR4Xu2WuUsDQRTG03hbe7USi9jZaGNjtNBokyjZFQUrG/GsbATvUtTOSm2DuyERBMH7qtIE2VWwEDz+Aa2s1vf2kNmXZNfsERD8YIqdnZnfN2/fvNlA4F+/VGZnvEwWuQlZ4Bay4mgdfe+rXhNDVQA/gabo7eU+GW+m43wRC7/bjymHW/2lM0Hhgz2tSrgjqKQ2S2AiH7yzrVltOSZSfD2d70pWcNZEelszIYn8El3DsX4DxxbtCik3e1EtCgI/Q9dxJEdwkbt63h2rpGsVLSkxVO4Enj0eraFrscJ1JYGflARu0TJXcJDX8MzhQDXkx5k+3vrUYCLhoPRmRAm3B+3gRbVb2JSRsA8i9wpRaaD8gCyMNMKAdxyU3OgzmXADx4jGurX6kd6KaP1JbpnyVT2I8RZqwi7sBsh4fjrqrYDnc+zDnSM8zyZm2TVMYk1gsbGCo6gBSeSmbODXtqeGNWEFR+UaMOcShcP3r2XnF9RjimuCo7MOZuasHOcYgASD5zfDhCN4MaIG1L6D4aBhwlc4Shb5D4RgxEz9cKrgyK3ZRdC1AHKKBgA0T9+h1FMBdwX8Sa3kPf9uBQtH9DB/oQkWgokLEbo0PgUWoYKV0I1wd8z3zmm3kIg/RciP/wcURkKv+58UHg2HzP8PcDHR+Z5Jq4Ra2A24Woy6Q8qdfiSxWNF5nklNOAs4tHM0Sed5JrxoEPRTCc3wC7yi6RxPRSshCy9Uzj1XnkpYOrghLRL8qpyMT/v6zf+8vgFG80iK7km8qAAAAABJRU5ErkJggg==" parent="4bJk6xh4GVJk0JVJR18--42" vertex="1">
          <mxGeometry y="25" width="106" height="25" as="geometry" />
        </mxCell>
        <mxCell id="4bJk6xh4GVJk0JVJR18--40" value="AShooter : M" style="label;fontStyle=0;strokeColor=default;fillColor=none;align=left;verticalAlign=middle;overflow=hidden;spacingLeft=28;spacingRight=4;rotatable=0;points=[[0,0.5],[1,0.5]];portConstraint=eastwest;imageWidth=16;imageHeight=16;image=data:image/png,iVBORw0KGgoAAAANSUhEUgAAACAAAAAgCAYAAABzenr0AAACPklEQVR4Xu2WuUsDQRTG03hbe7USi9jZaGNjtNBokyjZFQUrG/GsbATvUtTOSm2DuyERBMH7qtIE2VWwEDz+Aa2s1vf2kNmXZNfsERD8YIqdnZnfN2/fvNlA4F+/VGZnvEwWuQlZ4Bay4mgdfe+rXhNDVQA/gabo7eU+GW+m43wRC7/bjymHW/2lM0Hhgz2tSrgjqKQ2S2AiH7yzrVltOSZSfD2d70pWcNZEelszIYn8El3DsX4DxxbtCik3e1EtCgI/Q9dxJEdwkbt63h2rpGsVLSkxVO4Enj0eraFrscJ1JYGflARu0TJXcJDX8MzhQDXkx5k+3vrUYCLhoPRmRAm3B+3gRbVb2JSRsA8i9wpRaaD8gCyMNMKAdxyU3OgzmXADx4jGurX6kd6KaP1JbpnyVT2I8RZqwi7sBsh4fjrqrYDnc+zDnSM8zyZm2TVMYk1gsbGCo6gBSeSmbODXtqeGNWEFR+UaMOcShcP3r2XnF9RjimuCo7MOZuasHOcYgASD5zfDhCN4MaIG1L6D4aBhwlc4Shb5D4RgxEz9cKrgyK3ZRdC1AHKKBgA0T9+h1FMBdwX8Sa3kPf9uBQtH9DB/oQkWgokLEbo0PgUWoYKV0I1wd8z3zmm3kIg/RciP/wcURkKv+58UHg2HzP8PcDHR+Z5Jq4Ra2A24Woy6Q8qdfiSxWNF5nklNOAs4tHM0Sed5JrxoEPRTCc3wC7yi6RxPRSshCy9Uzj1XnkpYOrghLRL8qpyMT/v6zf+8vgFG80iK7km8qAAAAABJRU5ErkJggg==" vertex="1" parent="4bJk6xh4GVJk0JVJR18--42">
          <mxGeometry width="106" height="25" as="geometry" />
        </mxCell>
        <mxCell id="4bJk6xh4GVJk0JVJR18--47" value="" style="group" vertex="1" connectable="0" parent="1">
          <mxGeometry x="-43" y="1909" width="140" height="50" as="geometry" />
        </mxCell>
        <mxCell id="node9" value="PlayerShooter : M" style="label;fontStyle=0;strokeColor=default;fillColor=none;align=left;verticalAlign=middle;overflow=hidden;spacingLeft=28;spacingRight=4;rotatable=0;points=[[0,0.5],[1,0.5]];portConstraint=eastwest;imageWidth=16;imageHeight=16;image=data:image/png,iVBORw0KGgoAAAANSUhEUgAAACAAAAAgCAYAAABzenr0AAACPklEQVR4Xu2WuUsDQRTG03hbe7USi9jZaGNjtNBokyjZFQUrG/GsbATvUtTOSm2DuyERBMH7qtIE2VWwEDz+Aa2s1vf2kNmXZNfsERD8YIqdnZnfN2/fvNlA4F+/VGZnvEwWuQlZ4Bay4mgdfe+rXhNDVQA/gabo7eU+GW+m43wRC7/bjymHW/2lM0Hhgz2tSrgjqKQ2S2AiH7yzrVltOSZSfD2d70pWcNZEelszIYn8El3DsX4DxxbtCik3e1EtCgI/Q9dxJEdwkbt63h2rpGsVLSkxVO4Enj0eraFrscJ1JYGflARu0TJXcJDX8MzhQDXkx5k+3vrUYCLhoPRmRAm3B+3gRbVb2JSRsA8i9wpRaaD8gCyMNMKAdxyU3OgzmXADx4jGurX6kd6KaP1JbpnyVT2I8RZqwi7sBsh4fjrqrYDnc+zDnSM8zyZm2TVMYk1gsbGCo6gBSeSmbODXtqeGNWEFR+UaMOcShcP3r2XnF9RjimuCo7MOZuasHOcYgASD5zfDhCN4MaIG1L6D4aBhwlc4Shb5D4RgxEz9cKrgyK3ZRdC1AHKKBgA0T9+h1FMBdwX8Sa3kPf9uBQtH9DB/oQkWgokLEbo0PgUWoYKV0I1wd8z3zmm3kIg/RciP/wcURkKv+58UHg2HzP8PcDHR+Z5Jq4Ra2A24Woy6Q8qdfiSxWNF5nklNOAs4tHM0Sed5JrxoEPRTCc3wC7yi6RxPRSshCy9Uzj1XnkpYOrghLRL8qpyMT/v6zf+8vgFG80iK7km8qAAAAABJRU5ErkJggg==" parent="4bJk6xh4GVJk0JVJR18--47" vertex="1">
          <mxGeometry width="140" height="25" as="geometry" />
        </mxCell>
        <mxCell id="4bJk6xh4GVJk0JVJR18--44" value="void Shoot()" style="label;fontStyle=0;strokeColor=default;fillColor=none;align=left;verticalAlign=middle;overflow=hidden;spacingLeft=28;spacingRight=4;rotatable=0;points=[[0,0.5],[1,0.5]];portConstraint=eastwest;imageWidth=16;imageHeight=16;image=data:image/png,iVBORw0KGgoAAAANSUhEUgAAACAAAAAgCAYAAABzenr0AAACPklEQVR4Xu2WuUsDQRTG03hbe7USi9jZaGNjtNBokyjZFQUrG/GsbATvUtTOSm2DuyERBMH7qtIE2VWwEDz+Aa2s1vf2kNmXZNfsERD8YIqdnZnfN2/fvNlA4F+/VGZnvEwWuQlZ4Bay4mgdfe+rXhNDVQA/gabo7eU+GW+m43wRC7/bjymHW/2lM0Hhgz2tSrgjqKQ2S2AiH7yzrVltOSZSfD2d70pWcNZEelszIYn8El3DsX4DxxbtCik3e1EtCgI/Q9dxJEdwkbt63h2rpGsVLSkxVO4Enj0eraFrscJ1JYGflARu0TJXcJDX8MzhQDXkx5k+3vrUYCLhoPRmRAm3B+3gRbVb2JSRsA8i9wpRaaD8gCyMNMKAdxyU3OgzmXADx4jGurX6kd6KaP1JbpnyVT2I8RZqwi7sBsh4fjrqrYDnc+zDnSM8zyZm2TVMYk1gsbGCo6gBSeSmbODXtqeGNWEFR+UaMOcShcP3r2XnF9RjimuCo7MOZuasHOcYgASD5zfDhCN4MaIG1L6D4aBhwlc4Shb5D4RgxEz9cKrgyK3ZRdC1AHKKBgA0T9+h1FMBdwX8Sa3kPf9uBQtH9DB/oQkWgokLEbo0PgUWoYKV0I1wd8z3zmm3kIg/RciP/wcURkKv+58UHg2HzP8PcDHR+Z5Jq4Ra2A24Woy6Q8qdfiSxWNF5nklNOAs4tHM0Sed5JrxoEPRTCc3wC7yi6RxPRSshCy9Uzj1XnkpYOrghLRL8qpyMT/v6zf+8vgFG80iK7km8qAAAAABJRU5ErkJggg==" vertex="1" parent="4bJk6xh4GVJk0JVJR18--47">
          <mxGeometry y="25" width="140" height="25" as="geometry" />
        </mxCell>
        <mxCell id="4bJk6xh4GVJk0JVJR18--48" value="" style="group" vertex="1" connectable="0" parent="1">
          <mxGeometry x="97" y="1909" width="143" height="50" as="geometry" />
        </mxCell>
        <mxCell id="node1" value="EnemyShooter : M" style="label;fontStyle=0;strokeColor=default;fillColor=none;align=left;verticalAlign=middle;overflow=hidden;spacingLeft=28;spacingRight=4;rotatable=0;points=[[0,0.5],[1,0.5]];portConstraint=eastwest;imageWidth=16;imageHeight=16;image=data:image/png,iVBORw0KGgoAAAANSUhEUgAAACAAAAAgCAYAAABzenr0AAACPklEQVR4Xu2WuUsDQRTG03hbe7USi9jZaGNjtNBokyjZFQUrG/GsbATvUtTOSm2DuyERBMH7qtIE2VWwEDz+Aa2s1vf2kNmXZNfsERD8YIqdnZnfN2/fvNlA4F+/VGZnvEwWuQlZ4Bay4mgdfe+rXhNDVQA/gabo7eU+GW+m43wRC7/bjymHW/2lM0Hhgz2tSrgjqKQ2S2AiH7yzrVltOSZSfD2d70pWcNZEelszIYn8El3DsX4DxxbtCik3e1EtCgI/Q9dxJEdwkbt63h2rpGsVLSkxVO4Enj0eraFrscJ1JYGflARu0TJXcJDX8MzhQDXkx5k+3vrUYCLhoPRmRAm3B+3gRbVb2JSRsA8i9wpRaaD8gCyMNMKAdxyU3OgzmXADx4jGurX6kd6KaP1JbpnyVT2I8RZqwi7sBsh4fjrqrYDnc+zDnSM8zyZm2TVMYk1gsbGCo6gBSeSmbODXtqeGNWEFR+UaMOcShcP3r2XnF9RjimuCo7MOZuasHOcYgASD5zfDhCN4MaIG1L6D4aBhwlc4Shb5D4RgxEz9cKrgyK3ZRdC1AHKKBgA0T9+h1FMBdwX8Sa3kPf9uBQtH9DB/oQkWgokLEbo0PgUWoYKV0I1wd8z3zmm3kIg/RciP/wcURkKv+58UHg2HzP8PcDHR+Z5Jq4Ra2A24Woy6Q8qdfiSxWNF5nklNOAs4tHM0Sed5JrxoEPRTCc3wC7yi6RxPRSshCy9Uzj1XnkpYOrghLRL8qpyMT/v6zf+8vgFG80iK7km8qAAAAABJRU5ErkJggg==" parent="4bJk6xh4GVJk0JVJR18--48" vertex="1">
          <mxGeometry width="143" height="25" as="geometry" />
        </mxCell>
        <mxCell id="4bJk6xh4GVJk0JVJR18--46" value="void Shoot()" style="label;fontStyle=0;strokeColor=default;fillColor=none;align=left;verticalAlign=middle;overflow=hidden;spacingLeft=28;spacingRight=4;rotatable=0;points=[[0,0.5],[1,0.5]];portConstraint=eastwest;imageWidth=16;imageHeight=16;image=data:image/png,iVBORw0KGgoAAAANSUhEUgAAACAAAAAgCAYAAABzenr0AAACPklEQVR4Xu2WuUsDQRTG03hbe7USi9jZaGNjtNBokyjZFQUrG/GsbATvUtTOSm2DuyERBMH7qtIE2VWwEDz+Aa2s1vf2kNmXZNfsERD8YIqdnZnfN2/fvNlA4F+/VGZnvEwWuQlZ4Bay4mgdfe+rXhNDVQA/gabo7eU+GW+m43wRC7/bjymHW/2lM0Hhgz2tSrgjqKQ2S2AiH7yzrVltOSZSfD2d70pWcNZEelszIYn8El3DsX4DxxbtCik3e1EtCgI/Q9dxJEdwkbt63h2rpGsVLSkxVO4Enj0eraFrscJ1JYGflARu0TJXcJDX8MzhQDXkx5k+3vrUYCLhoPRmRAm3B+3gRbVb2JSRsA8i9wpRaaD8gCyMNMKAdxyU3OgzmXADx4jGurX6kd6KaP1JbpnyVT2I8RZqwi7sBsh4fjrqrYDnc+zDnSM8zyZm2TVMYk1gsbGCo6gBSeSmbODXtqeGNWEFR+UaMOcShcP3r2XnF9RjimuCo7MOZuasHOcYgASD5zfDhCN4MaIG1L6D4aBhwlc4Shb5D4RgxEz9cKrgyK3ZRdC1AHKKBgA0T9+h1FMBdwX8Sa3kPf9uBQtH9DB/oQkWgokLEbo0PgUWoYKV0I1wd8z3zmm3kIg/RciP/wcURkKv+58UHg2HzP8PcDHR+Z5Jq4Ra2A24Woy6Q8qdfiSxWNF5nklNOAs4tHM0Sed5JrxoEPRTCc3wC7yi6RxPRSshCy9Uzj1XnkpYOrghLRL8qpyMT/v6zf+8vgFG80iK7km8qAAAAABJRU5ErkJggg==" vertex="1" parent="4bJk6xh4GVJk0JVJR18--48">
          <mxGeometry y="25" width="143" height="25" as="geometry" />
        </mxCell>
        <mxCell id="4bJk6xh4GVJk0JVJR18--50" value="" style="group" vertex="1" connectable="0" parent="1">
          <mxGeometry x="230" y="1265" width="143" height="50" as="geometry" />
        </mxCell>
        <mxCell id="node10" value="void RestartGame()" style="label;fontStyle=0;strokeColor=default;fillColor=none;align=left;verticalAlign=middle;overflow=hidden;spacingLeft=28;spacingRight=4;rotatable=0;points=[[0,0.5],[1,0.5]];portConstraint=eastwest;imageWidth=16;imageHeight=16;image=data:image/png,iVBORw0KGgoAAAANSUhEUgAAACAAAAAgCAYAAABzenr0AAACPklEQVR4Xu2WuUsDQRTG03hbe7USi9jZaGNjtNBokyjZFQUrG/GsbATvUtTOSm2DuyERBMH7qtIE2VWwEDz+Aa2s1vf2kNmXZNfsERD8YIqdnZnfN2/fvNlA4F+/VGZnvEwWuQlZ4Bay4mgdfe+rXhNDVQA/gabo7eU+GW+m43wRC7/bjymHW/2lM0Hhgz2tSrgjqKQ2S2AiH7yzrVltOSZSfD2d70pWcNZEelszIYn8El3DsX4DxxbtCik3e1EtCgI/Q9dxJEdwkbt63h2rpGsVLSkxVO4Enj0eraFrscJ1JYGflARu0TJXcJDX8MzhQDXkx5k+3vrUYCLhoPRmRAm3B+3gRbVb2JSRsA8i9wpRaaD8gCyMNMKAdxyU3OgzmXADx4jGurX6kd6KaP1JbpnyVT2I8RZqwi7sBsh4fjrqrYDnc+zDnSM8zyZm2TVMYk1gsbGCo6gBSeSmbODXtqeGNWEFR+UaMOcShcP3r2XnF9RjimuCo7MOZuasHOcYgASD5zfDhCN4MaIG1L6D4aBhwlc4Shb5D4RgxEz9cKrgyK3ZRdC1AHKKBgA0T9+h1FMBdwX8Sa3kPf9uBQtH9DB/oQkWgokLEbo0PgUWoYKV0I1wd8z3zmm3kIg/RciP/wcURkKv+58UHg2HzP8PcDHR+Z5Jq4Ra2A24Woy6Q8qdfiSxWNF5nklNOAs4tHM0Sed5JrxoEPRTCc3wC7yi6RxPRSshCy9Uzj1XnkpYOrghLRL8qpyMT/v6zf+8vgFG80iK7km8qAAAAABJRU5ErkJggg==" parent="4bJk6xh4GVJk0JVJR18--50" vertex="1">
          <mxGeometry y="25" width="143" height="25" as="geometry" />
        </mxCell>
        <mxCell id="4bJk6xh4GVJk0JVJR18--49" value="GameRestart" style="label;fontStyle=0;strokeColor=default;fillColor=none;align=left;verticalAlign=middle;overflow=hidden;spacingLeft=28;spacingRight=4;rotatable=0;points=[[0,0.5],[1,0.5]];portConstraint=eastwest;imageWidth=16;imageHeight=16;image=data:image/png,iVBORw0KGgoAAAANSUhEUgAAACAAAAAgCAYAAABzenr0AAACPklEQVR4Xu2WuUsDQRTG03hbe7USi9jZaGNjtNBokyjZFQUrG/GsbATvUtTOSm2DuyERBMH7qtIE2VWwEDz+Aa2s1vf2kNmXZNfsERD8YIqdnZnfN2/fvNlA4F+/VGZnvEwWuQlZ4Bay4mgdfe+rXhNDVQA/gabo7eU+GW+m43wRC7/bjymHW/2lM0Hhgz2tSrgjqKQ2S2AiH7yzrVltOSZSfD2d70pWcNZEelszIYn8El3DsX4DxxbtCik3e1EtCgI/Q9dxJEdwkbt63h2rpGsVLSkxVO4Enj0eraFrscJ1JYGflARu0TJXcJDX8MzhQDXkx5k+3vrUYCLhoPRmRAm3B+3gRbVb2JSRsA8i9wpRaaD8gCyMNMKAdxyU3OgzmXADx4jGurX6kd6KaP1JbpnyVT2I8RZqwi7sBsh4fjrqrYDnc+zDnSM8zyZm2TVMYk1gsbGCo6gBSeSmbODXtqeGNWEFR+UaMOcShcP3r2XnF9RjimuCo7MOZuasHOcYgASD5zfDhCN4MaIG1L6D4aBhwlc4Shb5D4RgxEz9cKrgyK3ZRdC1AHKKBgA0T9+h1FMBdwX8Sa3kPf9uBQtH9DB/oQkWgokLEbo0PgUWoYKV0I1wd8z3zmm3kIg/RciP/wcURkKv+58UHg2HzP8PcDHR+Z5Jq4Ra2A24Woy6Q8qdfiSxWNF5nklNOAs4tHM0Sed5JrxoEPRTCc3wC7yi6RxPRSshCy9Uzj1XnkpYOrghLRL8qpyMT/v6zf+8vgFG80iK7km8qAAAAABJRU5ErkJggg==" vertex="1" parent="4bJk6xh4GVJk0JVJR18--50">
          <mxGeometry width="143" height="25" as="geometry" />
        </mxCell>
        <mxCell id="4bJk6xh4GVJk0JVJR18--54" value="" style="group" vertex="1" connectable="0" parent="1">
          <mxGeometry x="902" y="1304" width="156" height="50" as="geometry" />
        </mxCell>
        <mxCell id="node26" value="Spawn()" style="label;fontStyle=0;strokeColor=default;fillColor=none;align=left;verticalAlign=middle;overflow=hidden;spacingLeft=28;spacingRight=4;rotatable=0;points=[[0,0.5],[1,0.5]];portConstraint=eastwest;imageWidth=16;imageHeight=16;image=data:image/png,iVBORw0KGgoAAAANSUhEUgAAACAAAAAgCAYAAABzenr0AAACPklEQVR4Xu2WuUsDQRTG03hbe7USi9jZaGNjtNBokyjZFQUrG/GsbATvUtTOSm2DuyERBMH7qtIE2VWwEDz+Aa2s1vf2kNmXZNfsERD8YIqdnZnfN2/fvNlA4F+/VGZnvEwWuQlZ4Bay4mgdfe+rXhNDVQA/gabo7eU+GW+m43wRC7/bjymHW/2lM0Hhgz2tSrgjqKQ2S2AiH7yzrVltOSZSfD2d70pWcNZEelszIYn8El3DsX4DxxbtCik3e1EtCgI/Q9dxJEdwkbt63h2rpGsVLSkxVO4Enj0eraFrscJ1JYGflARu0TJXcJDX8MzhQDXkx5k+3vrUYCLhoPRmRAm3B+3gRbVb2JSRsA8i9wpRaaD8gCyMNMKAdxyU3OgzmXADx4jGurX6kd6KaP1JbpnyVT2I8RZqwi7sBsh4fjrqrYDnc+zDnSM8zyZm2TVMYk1gsbGCo6gBSeSmbODXtqeGNWEFR+UaMOcShcP3r2XnF9RjimuCo7MOZuasHOcYgASD5zfDhCN4MaIG1L6D4aBhwlc4Shb5D4RgxEz9cKrgyK3ZRdC1AHKKBgA0T9+h1FMBdwX8Sa3kPf9uBQtH9DB/oQkWgokLEbo0PgUWoYKV0I1wd8z3zmm3kIg/RciP/wcURkKv+58UHg2HzP8PcDHR+Z5Jq4Ra2A24Woy6Q8qdfiSxWNF5nklNOAs4tHM0Sed5JrxoEPRTCc3wC7yi6RxPRSshCy9Uzj1XnkpYOrghLRL8qpyMT/v6zf+8vgFG80iK7km8qAAAAABJRU5ErkJggg==" parent="4bJk6xh4GVJk0JVJR18--54" vertex="1">
          <mxGeometry y="25" width="156" height="25" as="geometry" />
        </mxCell>
        <mxCell id="4bJk6xh4GVJk0JVJR18--52" value="EnemySpawnService" style="label;fontStyle=0;strokeColor=default;fillColor=none;align=left;verticalAlign=middle;overflow=hidden;spacingLeft=28;spacingRight=4;rotatable=0;points=[[0,0.5],[1,0.5]];portConstraint=eastwest;imageWidth=16;imageHeight=16;image=data:image/png,iVBORw0KGgoAAAANSUhEUgAAACAAAAAgCAYAAABzenr0AAACPklEQVR4Xu2WuUsDQRTG03hbe7USi9jZaGNjtNBokyjZFQUrG/GsbATvUtTOSm2DuyERBMH7qtIE2VWwEDz+Aa2s1vf2kNmXZNfsERD8YIqdnZnfN2/fvNlA4F+/VGZnvEwWuQlZ4Bay4mgdfe+rXhNDVQA/gabo7eU+GW+m43wRC7/bjymHW/2lM0Hhgz2tSrgjqKQ2S2AiH7yzrVltOSZSfD2d70pWcNZEelszIYn8El3DsX4DxxbtCik3e1EtCgI/Q9dxJEdwkbt63h2rpGsVLSkxVO4Enj0eraFrscJ1JYGflARu0TJXcJDX8MzhQDXkx5k+3vrUYCLhoPRmRAm3B+3gRbVb2JSRsA8i9wpRaaD8gCyMNMKAdxyU3OgzmXADx4jGurX6kd6KaP1JbpnyVT2I8RZqwi7sBsh4fjrqrYDnc+zDnSM8zyZm2TVMYk1gsbGCo6gBSeSmbODXtqeGNWEFR+UaMOcShcP3r2XnF9RjimuCo7MOZuasHOcYgASD5zfDhCN4MaIG1L6D4aBhwlc4Shb5D4RgxEz9cKrgyK3ZRdC1AHKKBgA0T9+h1FMBdwX8Sa3kPf9uBQtH9DB/oQkWgokLEbo0PgUWoYKV0I1wd8z3zmm3kIg/RciP/wcURkKv+58UHg2HzP8PcDHR+Z5Jq4Ra2A24Woy6Q8qdfiSxWNF5nklNOAs4tHM0Sed5JrxoEPRTCc3wC7yi6RxPRSshCy9Uzj1XnkpYOrghLRL8qpyMT/v6zf+8vgFG80iK7km8qAAAAABJRU5ErkJggg==" vertex="1" parent="4bJk6xh4GVJk0JVJR18--54">
          <mxGeometry width="156" height="25" as="geometry" />
        </mxCell>
        <mxCell id="4bJk6xh4GVJk0JVJR18--56" value="" style="group" vertex="1" connectable="0" parent="1">
          <mxGeometry x="909.25" y="1520" width="141.5" height="50" as="geometry" />
        </mxCell>
        <mxCell id="node23" value="List EnemyColumns" style="label;fontStyle=0;strokeColor=default;fillColor=none;align=left;verticalAlign=middle;overflow=hidden;spacingLeft=28;spacingRight=4;rotatable=0;points=[[0,0.5],[1,0.5]];portConstraint=eastwest;imageWidth=16;imageHeight=16;image=data:image/png,iVBORw0KGgoAAAANSUhEUgAAACAAAAAgCAYAAABzenr0AAACPklEQVR4Xu2WuUsDQRTG03hbe7USi9jZaGNjtNBokyjZFQUrG/GsbATvUtTOSm2DuyERBMH7qtIE2VWwEDz+Aa2s1vf2kNmXZNfsERD8YIqdnZnfN2/fvNlA4F+/VGZnvEwWuQlZ4Bay4mgdfe+rXhNDVQA/gabo7eU+GW+m43wRC7/bjymHW/2lM0Hhgz2tSrgjqKQ2S2AiH7yzrVltOSZSfD2d70pWcNZEelszIYn8El3DsX4DxxbtCik3e1EtCgI/Q9dxJEdwkbt63h2rpGsVLSkxVO4Enj0eraFrscJ1JYGflARu0TJXcJDX8MzhQDXkx5k+3vrUYCLhoPRmRAm3B+3gRbVb2JSRsA8i9wpRaaD8gCyMNMKAdxyU3OgzmXADx4jGurX6kd6KaP1JbpnyVT2I8RZqwi7sBsh4fjrqrYDnc+zDnSM8zyZm2TVMYk1gsbGCo6gBSeSmbODXtqeGNWEFR+UaMOcShcP3r2XnF9RjimuCo7MOZuasHOcYgASD5zfDhCN4MaIG1L6D4aBhwlc4Shb5D4RgxEz9cKrgyK3ZRdC1AHKKBgA0T9+h1FMBdwX8Sa3kPf9uBQtH9DB/oQkWgokLEbo0PgUWoYKV0I1wd8z3zmm3kIg/RciP/wcURkKv+58UHg2HzP8PcDHR+Z5Jq4Ra2A24Woy6Q8qdfiSxWNF5nklNOAs4tHM0Sed5JrxoEPRTCc3wC7yi6RxPRSshCy9Uzj1XnkpYOrghLRL8qpyMT/v6zf+8vgFG80iK7km8qAAAAABJRU5ErkJggg==" parent="4bJk6xh4GVJk0JVJR18--56" vertex="1">
          <mxGeometry y="25" width="141.5" height="25" as="geometry" />
        </mxCell>
        <mxCell id="4bJk6xh4GVJk0JVJR18--55" value="EnemySpawner : M" style="label;fontStyle=0;strokeColor=default;fillColor=none;align=left;verticalAlign=middle;overflow=hidden;spacingLeft=28;spacingRight=4;rotatable=0;points=[[0,0.5],[1,0.5]];portConstraint=eastwest;imageWidth=16;imageHeight=16;image=data:image/png,iVBORw0KGgoAAAANSUhEUgAAACAAAAAgCAYAAABzenr0AAACPklEQVR4Xu2WuUsDQRTG03hbe7USi9jZaGNjtNBokyjZFQUrG/GsbATvUtTOSm2DuyERBMH7qtIE2VWwEDz+Aa2s1vf2kNmXZNfsERD8YIqdnZnfN2/fvNlA4F+/VGZnvEwWuQlZ4Bay4mgdfe+rXhNDVQA/gabo7eU+GW+m43wRC7/bjymHW/2lM0Hhgz2tSrgjqKQ2S2AiH7yzrVltOSZSfD2d70pWcNZEelszIYn8El3DsX4DxxbtCik3e1EtCgI/Q9dxJEdwkbt63h2rpGsVLSkxVO4Enj0eraFrscJ1JYGflARu0TJXcJDX8MzhQDXkx5k+3vrUYCLhoPRmRAm3B+3gRbVb2JSRsA8i9wpRaaD8gCyMNMKAdxyU3OgzmXADx4jGurX6kd6KaP1JbpnyVT2I8RZqwi7sBsh4fjrqrYDnc+zDnSM8zyZm2TVMYk1gsbGCo6gBSeSmbODXtqeGNWEFR+UaMOcShcP3r2XnF9RjimuCo7MOZuasHOcYgASD5zfDhCN4MaIG1L6D4aBhwlc4Shb5D4RgxEz9cKrgyK3ZRdC1AHKKBgA0T9+h1FMBdwX8Sa3kPf9uBQtH9DB/oQkWgokLEbo0PgUWoYKV0I1wd8z3zmm3kIg/RciP/wcURkKv+58UHg2HzP8PcDHR+Z5Jq4Ra2A24Woy6Q8qdfiSxWNF5nklNOAs4tHM0Sed5JrxoEPRTCc3wC7yi6RxPRSshCy9Uzj1XnkpYOrghLRL8qpyMT/v6zf+8vgFG80iK7km8qAAAAABJRU5ErkJggg==" vertex="1" parent="4bJk6xh4GVJk0JVJR18--56">
          <mxGeometry width="141.5" height="25" as="geometry" />
        </mxCell>
      </root>
    </mxGraphModel>
  </diagram>
</mxfile>
